<?xml version="1.0" standalone="no"?>
<!DOCTYPE svg PUBLIC "-//W3C//DTD SVG 1.1//EN" "http://www.w3.org/Graphics/SVG/1.1/DTD/svg11.dtd" >
<svg xmlns="http://www.w3.org/2000/svg">
<metadata>
This is a custom SVG webfont generated by Font Squirrel.
Copyright   : Copyright  1998 by Matthew Welch All Rights Reserved
</metadata>
<defs>
<font id="webfont3nBKV8Ys" horiz-adv-x="798" >
<font-face units-per-em="2048" ascent="1700" descent="-348" />
<missing-glyph horiz-adv-x="598" />
<glyph unicode=" "  horiz-adv-x="598" />
<glyph unicode="&#x09;" horiz-adv-x="598" />
<glyph unicode="&#xa0;" horiz-adv-x="598" />
<glyph unicode="!" horiz-adv-x="399" d="M100 0v201h199v-201h-199zM100 899v502h199v-502l-49 -500h-100z" />
<glyph unicode="&#x22;" horiz-adv-x="698" d="M100 999l101 201h-101v201h199v-201l-98 -201h-101zM399 999l101 201h-101v201h201v-201l-100 -201h-101z" />
<glyph unicode="#" horiz-adv-x="899" d="M100 399v201l101 8v193h-101v198h101v201h198v-201h101v201h200v-201h101v-198h-101v-201h101v-201h-101v-198h-200v198h-101v-198h-198v198h-101zM399 600h101v201h-101v-201z" />
<glyph unicode="$" d="M100 360v140h199v-101h201v201h-240l-160 160v280l160 160h39v201h201v-201h41l159 -160v-141h-200v100h-201v-198h242l159 -162v-279l-159 -155l-41 -4v-201h-201v201h-39z" />
<glyph unicode="'" horiz-adv-x="399" d="M100 999l101 201h-101v201h199v-201l-98 -201h-101z" />
<glyph unicode="+" d="M100 600v201h199v252h201v-252h200v-201h-200v-201h-201v201h-199z" />
<glyph unicode="," horiz-adv-x="399" d="M100 0v201h199v-201l-98 -201h-101l101 201h-101z" />
<glyph unicode="-" d="M100 600v201h600v-201h-600z" />
<glyph unicode="." horiz-adv-x="399" d="M100 0v201h199v-201h-199z" />
<glyph unicode="0" d="M100 160v1079l160 162h281l159 -162v-1079l-159 -160h-281zM299 201h201v999h-201v-999z" />
<glyph unicode="1" d="M100 0v201h199v852h-147v147l147 201h201v-1200h200v-201h-600z" />
<glyph unicode="2" d="M100 0v639l160 162h240v399h-201v-100h-199v139l160 162h281l159 -162v-479l-159 -160h-242v-399h201v98h200v-299h-600z" />
<glyph unicode="3" d="M100 160v139h199v-98h201v399h-101v201h101v399h-201v-100h-199v139l160 162h281l159 -162v-479l-61 -60l61 -61v-479l-159 -160h-281z" />
<glyph unicode="4" d="M100 399v201l299 801h197v-801h104v-201h-100v-198h100v-201h-401v201h100v198h-299zM299 600h100v266z" />
<glyph unicode="5" d="M100 160v139h199v-98h201v399h-240l-160 160v641h600v-201h-401v-399h242l159 -162v-479l-159 -160h-281z" />
<glyph unicode="6" d="M100 160v1079l160 162h281l159 -162v-139h-200v100h-201v-399h242l159 -162v-479l-159 -160h-281zM299 201h201v399h-201v-399z" />
<glyph unicode="7" d="M100 0v201h101l299 999h-201v-100h-199v301h600v-201l-301 -999h101v-201h-400z" />
<glyph unicode="8" d="M100 160v479l60 61l-60 60v479l160 162h281l159 -162v-479l-61 -60l61 -61v-479l-159 -160h-281zM299 201h201v399h-201v-399zM299 801h201v399h-201v-399z" />
<glyph unicode="9" d="M100 160v139h199v-98h201v399h-240l-160 160v479l160 162h281l159 -162v-1079l-159 -160h-281zM299 801h201v399h-201v-399z" />
<glyph unicode=":" horiz-adv-x="399" d="M100 0v201h199v-201h-199zM100 600v201h199v-201h-199z" />
<glyph unicode=";" horiz-adv-x="399" d="M100 0v201h199v-201l-98 -201h-101l101 201h-101zM100 600v201h199v-201h-199z" />
<glyph unicode="=" d="M100 399v201h600v-201h-600zM100 801v198h600v-198h-600z" />
<glyph unicode="?" d="M100 999v240l160 162h281l159 -162v-479l-159 -160h-41v-201h-201v240l162 162h39v399h-201v-201h-199zM299 0v201h201v-201h-201z" />
<glyph unicode="A" horiz-adv-x="999" d="M100 0v201h101l198 1200h201l201 -1200h98v-201h-379v201h80l-35 198h-133l-33 -198h80v-201h-379zM467 600h65l-32 201z" />
<glyph unicode="B" horiz-adv-x="899" d="M100 0v201h101v999h-101v201h539l162 -162v-479l-62 -60l62 -61v-479l-162 -160h-539zM399 201h201v399h-201v-399zM399 801h201v399h-201v-399z" />
<glyph unicode="C" d="M100 160v1079l160 162h281l159 -162v-240h-200v201h-201v-999h201v198h200v-239l-159 -160h-281z" />
<glyph unicode="D" horiz-adv-x="899" d="M100 0v201h101v999h-101v201h539l162 -162v-1079l-162 -160h-539zM399 201h201v999h-201v-999z" />
<glyph unicode="E" horiz-adv-x="899" d="M100 0v201h101v999h-101v201h701v-301h-201v100h-201v-399h301v-201h-301v-399h201v98h201v-299h-701z" />
<glyph unicode="F" horiz-adv-x="899" d="M100 0v201h101v999h-101v201h701v-301h-201v100h-201v-399h250v-201h-250v-399h101v-201h-400z" />
<glyph unicode="G" d="M100 160v1079l160 162h281l159 -162v-240h-200v201h-201v-999h201v399h-101v201h301v-641l-159 -160h-281z" />
<glyph unicode="H" horiz-adv-x="999" d="M100 0v201h101v999h-101v201h379v-201h-80v-399h201v399h-80v201h379v-201h-98v-999h98v-201h-379v201h80v399h-201v-399h80v-201h-379z" />
<glyph unicode="I" horiz-adv-x="598" d="M100 0v201h101v999h-101v201h400v-201h-101v-999h101v-201h-400z" />
<glyph unicode="J" horiz-adv-x="899" d="M100 160v239h199v-198h201v999h-101v201h402v-201h-101v-1040l-159 -160h-281z" />
<glyph unicode="K" horiz-adv-x="1079" d="M100 0v201h101v999h-101v201h400v-201h-101v-469l281 469h-100v201h401v-201h-100l-242 -440l242 -559h100v-201h-401v201h100l-152 358l-129 -194v-164h101v-201h-400z" />
<glyph unicode="L" horiz-adv-x="899" d="M100 0v201h101v999h-101v201h400v-201h-101v-999h201v98h201v-299h-701z" />
<glyph unicode="M" horiz-adv-x="1298" d="M100 0v201h101v999h-101v201h299l250 -762l250 762h301v-201h-100v-999h100v-201h-399v201h98v559l-250 -760l-250 764v-563h101v-201h-400z" />
<glyph unicode="N" horiz-adv-x="1099" d="M100 0v201h101v999h-101v201h299l301 -801v600h-100v201h399v-201h-100v-1200h-199l-301 801v-600h101v-201h-400z" />
<glyph unicode="O" d="M100 160v1079l160 162h281l159 -162v-1079l-159 -160h-281zM299 201h201v999h-201v-999z" />
<glyph unicode="P" horiz-adv-x="899" d="M100 0v201h101v999h-101v201h539l162 -162v-479l-162 -160h-240v-399h101v-201h-400zM399 801h201v399h-201v-399z" />
<glyph unicode="Q" d="M100 160v1079l160 162h281l159 -162v-1079l-159 -160h-41v-100h-201v100h-39zM299 201h201v999h-201v-999z" />
<glyph unicode="R" horiz-adv-x="999" d="M100 0v201h101v999h-101v201h539l162 -162v-479l-62 -60l62 -61v-438h98v-201h-379v201h80v399h-201v-399h80v-201h-379zM399 801h201v399h-201v-399z" />
<glyph unicode="S" d="M100 160v139h199v-98h201v399h-240l-160 160v479l160 162h281l159 -162v-139h-200v100h-201v-399h242l159 -162v-479l-159 -160h-281z" />
<glyph unicode="T" horiz-adv-x="999" d="M100 1100v301h799v-301h-199v100h-100v-999h100v-201h-401v201h96v999h-96v-100h-199z" />
<glyph unicode="U" horiz-adv-x="999" d="M100 1200v201h379v-201h-80v-999h201v999h-80v201h379v-201h-98v-1040l-162 -160h-279l-159 160v1040h-101z" />
<glyph unicode="V" horiz-adv-x="999" d="M100 1200v201h379v-201h-80l97 -596l104 596h-80v201h379v-201h-98l-201 -1200h-201l-198 1200h-101z" />
<glyph unicode="W" horiz-adv-x="1398" d="M100 1200v201h400v-201h-101l121 -600l180 420l181 -420l118 600h-100v201h401v-201h-100l-201 -999h101v-201h-379v201h80l-101 299l-100 -299h80v-201h-381v201h100l-198 999h-101z" />
<glyph unicode="X" horiz-adv-x="999" d="M100 0v201h101l198 499l-198 500h-101v201h379v-201h-80l101 -250l100 250h-80v201h379v-201h-98l-201 -500l201 -499h98v-201h-379v201h80l-100 250l-101 -250h80v-201h-379z" />
<glyph unicode="Y" horiz-adv-x="999" d="M100 1200v201h379v-201h-80l101 -250l100 250h-80v201h379v-201h-98l-201 -500v-499h100v-201h-401v201h100v499l-198 500h-101z" />
<glyph unicode="Z" horiz-adv-x="999" d="M100 0v201l539 999h-340v-100h-199v301h799v-201l-539 -999h340v98h199v-299h-799z" />
<glyph unicode="a" horiz-adv-x="899" d="M100 0l250 1401h201l250 -1401h-201l-72 399h-157l-72 -399h-199zM408 600h86l-43 240z" />
<glyph unicode="b" d="M100 0v1401h441l159 -162v-479l-61 -60l61 -61v-479l-159 -160h-441zM299 201h201v399h-201v-399zM299 801h201v399h-201v-399z" />
<glyph unicode="c" d="M100 160v1079l160 162h281l159 -162v-240h-200v201h-201v-999h201v198h200v-239l-159 -160h-281z" />
<glyph unicode="d" d="M100 0v1401h441l159 -162v-1079l-159 -160h-441zM299 201h201v999h-201v-999z" />
<glyph unicode="e" d="M100 0v1401h600v-201h-401v-399h252v-201h-252v-399h401v-201h-600z" />
<glyph unicode="f" d="M100 0v1401h600v-201h-401v-399h252v-201h-252v-600h-199z" />
<glyph unicode="g" d="M100 160v1079l160 162h281l159 -162v-240h-200v201h-201v-999h201v399h-101v201h301v-641l-159 -160h-281z" />
<glyph unicode="h" d="M100 0v1401h199v-600h201v600h200v-1401h-200v600h-201v-600h-199z" />
<glyph unicode="i" horiz-adv-x="399" d="M100 0v1401h199v-1401h-199z" />
<glyph unicode="j" d="M100 160v239h199v-198h201v1200h200v-1241l-159 -160h-281z" />
<glyph unicode="k" horiz-adv-x="999" d="M100 0v1401h199v-553l352 553h248l-358 -561l358 -840h-199l-288 692l-113 -160v-532h-199z" />
<glyph unicode="l" d="M100 0v1401h199v-1200h401v-201h-600z" />
<glyph unicode="m" horiz-adv-x="1099" d="M100 0v1401h199l252 -801l250 801h198v-1401h-198v801l-250 -801l-252 801v-801h-199z" />
<glyph unicode="n" horiz-adv-x="899" d="M100 0v1401h199l301 -801v801h201v-1401h-201l-301 801v-801h-199z" />
<glyph unicode="o" d="M100 160v1079l160 162h281l159 -162v-1079l-159 -160h-281zM299 201h201v999h-201v-999z" />
<glyph unicode="p" d="M100 0v1401h441l159 -162v-479l-159 -160h-242v-600h-199zM299 801h201v399h-201v-399z" />
<glyph unicode="q" d="M100 160v1079l160 162h281l159 -162v-1079l-159 -160h-41v-100h-201v100h-39zM299 201h201v999h-201v-999z" />
<glyph unicode="r" d="M100 0v1401h441l159 -162v-479l-61 -60l61 -61v-639h-200v600h-201v-600h-199zM299 801h201v399h-201v-399z" />
<glyph unicode="s" d="M100 160v139h199v-98h201v399h-240l-160 160v479l160 162h281l159 -162v-139h-200v100h-201v-399h242l159 -162v-479l-159 -160h-281z" />
<glyph unicode="t" d="M100 1200v201h600v-201h-200v-1200h-201v1200h-199z" />
<glyph unicode="u" d="M100 160v1241h199v-1200h201v1200h200v-1241l-159 -160h-281z" />
<glyph unicode="v" horiz-adv-x="899" d="M100 1401h199l152 -842l149 842h201l-250 -1401h-201z" />
<glyph unicode="w" horiz-adv-x="1298" d="M100 1401h199l141 -772l111 571h199l110 -571l139 772h201l-250 -1401h-200l-101 567l-98 -567h-201z" />
<glyph unicode="x" horiz-adv-x="999" d="M100 0l299 700l-299 701h199l201 -467l200 467h199l-299 -701l299 -700h-199l-200 467l-201 -467h-199z" />
<glyph unicode="y" horiz-adv-x="999" d="M100 1401h199l201 -467l200 467h199l-299 -701v-700h-201v700z" />
<glyph unicode="z" d="M100 0v201l340 999h-340v201h600v-201l-340 -999h340v-201h-600z" />
<glyph unicode="&#xaa;" horiz-adv-x="899" d="M100 0l250 1401h201l250 -1401h-201l-72 399h-157l-72 -399h-199zM408 600h86l-43 240z" />
<glyph unicode="&#xad;" d="M100 600v201h600v-201h-600z" />
<glyph unicode="&#xb2;" d="M100 0v639l160 162h240v399h-201v-100h-199v139l160 162h281l159 -162v-479l-159 -160h-242v-399h201v98h200v-299h-600z" />
<glyph unicode="&#xb3;" d="M100 160v139h199v-98h201v399h-101v201h101v399h-201v-100h-199v139l160 162h281l159 -162v-479l-61 -60l61 -61v-479l-159 -160h-281z" />
<glyph unicode="&#xb9;" d="M100 0v201h199v852h-147v147l147 201h201v-1200h200v-201h-600z" />
<glyph unicode="&#xba;" d="M100 160v1079l160 162h281l159 -162v-1079l-159 -160h-281zM299 201h201v999h-201v-999z" />
<glyph unicode="&#x152;" horiz-adv-x="1699" d="M901 0v201h101v999h-101v201h701v-301h-201v100h-201v-399h301v-201h-301v-399h201v98h201v-299h-701zM100 160v1079l160 162h281l159 -162v-1079l-159 -160h-281zM299 201h201v999h-201v-999z" />
<glyph unicode="&#x153;" horiz-adv-x="1599" d="M901 0v1401h600v-201h-401v-399h252v-201h-252v-399h401v-201h-600zM100 160v1079l160 162h281l159 -162v-1079l-159 -160h-281zM299 201h201v999h-201v-999z" />
<glyph unicode="&#x2000;" horiz-adv-x="698" />
<glyph unicode="&#x2001;" horiz-adv-x="1398" />
<glyph unicode="&#x2002;" horiz-adv-x="698" />
<glyph unicode="&#x2003;" horiz-adv-x="1398" />
<glyph unicode="&#x2004;" horiz-adv-x="464" />
<glyph unicode="&#x2005;" horiz-adv-x="348" />
<glyph unicode="&#x2006;" horiz-adv-x="231" />
<glyph unicode="&#x2007;" horiz-adv-x="231" />
<glyph unicode="&#x2008;" horiz-adv-x="174" />
<glyph unicode="&#x2009;" horiz-adv-x="278" />
<glyph unicode="&#x200a;" horiz-adv-x="75" />
<glyph unicode="&#x2010;" d="M100 600v201h600v-201h-600z" />
<glyph unicode="&#x2011;" d="M100 600v201h600v-201h-600z" />
<glyph unicode="&#x2012;" d="M100 600v201h600v-201h-600z" />
<glyph unicode="&#x2013;" horiz-adv-x="1024" d="M100 600v201h824v-201h-824z" />
<glyph unicode="&#x2014;" horiz-adv-x="2048" d="M100 600v201h1848v-201h-1848z" />
<glyph unicode="&#x2019;" horiz-adv-x="399" d="M100 999l101 201h-101v201h199v-201l-98 -201h-101z" />
<glyph unicode="&#x201c;" horiz-adv-x="698" d="M100 999l101 201h-101v201h199v-201l-98 -201h-101zM399 999l101 201h-101v201h201v-201l-100 -201h-101z" />
<glyph unicode="&#x201d;" horiz-adv-x="698" d="M100 999l101 201h-101v201h199v-201l-98 -201h-101zM399 999l101 201h-101v201h201v-201l-100 -201h-101z" />
<glyph unicode="&#x2026;" horiz-adv-x="1198" d="M901 0v201h199v-201h-199zM499 0v201h199v-201h-199zM100 0v201h199v-201h-199z" />
<glyph unicode="&#x202f;" horiz-adv-x="278" />
<glyph unicode="&#x205f;" horiz-adv-x="348" />
<glyph unicode="&#x2122;" horiz-adv-x="2299" d="M1099 0v201h101v999h-101v201h299l250 -762l250 762h301v-201h-100v-999h100v-201h-399v201h98v559l-250 -760l-250 764v-563h101v-201h-400zM100 1100v301h799v-301h-199v100h-100v-999h100v-201h-401v201h96v999h-96v-100h-199z" />
<glyph unicode="&#xe000;" horiz-adv-x="1400" d="M0 1400h1400v-1400h-1400v1400z" />
<glyph unicode="&#xfb01;" horiz-adv-x="1198" d="M901 0v1401h199v-1401h-199zM100 0v1401h600v-201h-401v-399h252v-201h-252v-600h-199z" />
<glyph unicode="&#xfb02;" horiz-adv-x="1599" d="M901 0v1401h199v-1200h401v-201h-600zM100 0v1401h600v-201h-401v-399h252v-201h-252v-600h-199z" />
<glyph unicode="&#xfb03;" horiz-adv-x="1998" d="M1699 0v1401h199v-1401h-199zM901 0v1401h600v-201h-401v-399h252v-201h-252v-600h-199zM100 0v1401h600v-201h-401v-399h252v-201h-252v-600h-199z" />
<glyph unicode="&#xfb04;" horiz-adv-x="2398" d="M1699 0v1401h199v-1200h401v-201h-600zM901 0v1401h600v-201h-401v-399h252v-201h-252v-600h-199zM100 0v1401h600v-201h-401v-399h252v-201h-252v-600h-199z" />
</font>
</defs>
</svg>
