<?xml version="1.0" standalone="no"?>
<!DOCTYPE svg PUBLIC "-//W3C//DTD SVG 1.1//EN" "http://www.w3.org/Graphics/SVG/1.1/DTD/svg11.dtd" >
<svg xmlns="http://www.w3.org/2000/svg">
<metadata>
This is a custom SVG webfont generated by Font Squirrel.
Copyright   : Copyright  1998 by Matthew Welch All Rights Reserved
</metadata>
<defs>
<font id="webfontMaeXbzIP" horiz-adv-x="1038" >
<font-face units-per-em="2048" ascent="1700" descent="-348" />
<missing-glyph horiz-adv-x="839" />
<glyph unicode=" "  horiz-adv-x="839" />
<glyph unicode="&#x09;" horiz-adv-x="839" />
<glyph unicode="&#xa0;" horiz-adv-x="839" />
<glyph unicode="!" horiz-adv-x="479" d="M100 0v281h281v-281h-281zM100 981v420h281v-420l-62 -422h-159z" />
<glyph unicode="&#x22;" horiz-adv-x="878" d="M100 840l140 280h-140v281h281v-281l-141 -280h-140zM500 840l139 280h-139v281h280v-281l-141 -280h-139z" />
<glyph unicode="#" horiz-adv-x="1318" d="M100 281v278h140v281h-140v280h140v281h280v-281h281v281h278v-281h142v-280h-142v-281h142v-278h-142v-281h-278v281h-281v-281h-280v281h-140zM520 559h281v281h-281v-281z" />
<glyph unicode="$" d="M100 223v197h281v-139h278v278h-335l-224 225v392l224 225h57v278h278v-278h58l223 -225v-195h-281v139h-278v-280h336l223 -224v-393l-223 -223h-58v-281h-278v281h-57z" />
<glyph unicode="'" horiz-adv-x="479" d="M100 840l140 280h-140v281h281v-281l-141 -280h-140z" />
<glyph unicode="+" d="M100 559v281h281v280h278v-280h281v-281h-281v-278h-278v278h-281z" />
<glyph unicode="," horiz-adv-x="479" d="M100 0v281h281v-281l-141 -281h-140l140 281h-140z" />
<glyph unicode="-" d="M100 559v281h840v-281h-840z" />
<glyph unicode="." horiz-adv-x="479" d="M100 0v281h281v-281h-281z" />
<glyph unicode="0" d="M100 223v953l224 225h393l223 -225v-953l-223 -223h-393zM381 281h278v839h-278v-839z" />
<glyph unicode="1" d="M240 0v281h141v700h-141v211l141 209h278v-1120h142v-281h-561z" />
<glyph unicode="2" d="M100 0v616l224 224h335v280h-278v-139h-281v195l224 225h393l223 -225v-392l-223 -225h-336v-278h278v139h281v-420h-840z" />
<glyph unicode="3" d="M100 223v197h281v-139h278v278h-139v281h139v280h-278v-139h-281v195l224 225h393l223 -225v-392l-84 -84l84 -84v-393l-223 -223h-393z" />
<glyph unicode="4" d="M100 420v280l420 701h281v-701h139v-280h-139v-139h139v-281h-559v281h139v139h-420zM399 700h121v199z" />
<glyph unicode="5" d="M100 223v197h281v-139h278v278h-335l-224 225v617h840v-281h-559v-280h336l223 -224v-393l-223 -223h-393z" />
<glyph unicode="6" d="M100 223v953l224 225h393l223 -225v-195h-281v139h-278v-280h336l223 -224v-393l-223 -223h-393zM381 281h278v278h-278v-278z" />
<glyph unicode="7" d="M100 0v281h140l419 839h-278v-139h-281v420h840v-281l-420 -839h139v-281h-559z" />
<glyph unicode="8" d="M100 223v393l84 84l-84 84v392l224 225h393l223 -225v-392l-84 -84l84 -84v-393l-223 -223h-393zM381 281h278v278h-278v-278zM381 840h278v280h-278v-280z" />
<glyph unicode="9" d="M100 223v197h281v-139h278v278h-335l-224 225v392l224 225h393l223 -225v-953l-223 -223h-393zM360 840h299v280h-299v-280z" />
<glyph unicode=":" horiz-adv-x="479" d="M100 0v281h281v-281h-281zM100 840v280h281v-280h-281z" />
<glyph unicode=";" horiz-adv-x="479" d="M100 0v281h281v-281l-141 -281h-140l140 281h-140zM100 840v280h281v-280h-281z" />
<glyph unicode="=" d="M100 281v278h840v-278h-840zM100 840v280h840v-280h-840z" />
<glyph unicode="?" d="M100 981v195l224 225h393l223 -225v-392l-223 -225h-58v-139h-278v196l223 224h55v280h-278v-139h-281zM381 0v281h278v-281h-278z" />
<glyph unicode="A" horiz-adv-x="1318" d="M100 0v281h140l280 1120h281l278 -1120h142v-281h-541v281h121l-35 139h-211l-35 -139h119v-281h-539zM625 700h69l-35 140z" />
<glyph unicode="B" horiz-adv-x="1179" d="M100 0v281h140v839h-140v281h756l223 -225v-392l-139 -84l139 -84v-393l-223 -223h-756zM520 281h281v278h-281v-278zM520 840h281v280h-281v-280z" />
<glyph unicode="C" d="M100 223v953l224 225h393l223 -225v-195h-281v139h-278v-839h278v139h281v-197l-223 -223h-393z" />
<glyph unicode="D" horiz-adv-x="1179" d="M100 0v281h140v839h-140v281h756l223 -225v-953l-223 -223h-756zM520 281h281v839h-281v-839z" />
<glyph unicode="E" horiz-adv-x="1179" d="M100 0v281h140v839h-140v281h979v-420h-278v139h-281v-280h281v-281h-281v-278h281v139h278v-420h-979z" />
<glyph unicode="F" horiz-adv-x="1179" d="M100 0v281h140v839h-140v281h979v-420h-278v139h-281v-280h281v-281h-281v-278h139v-281h-559z" />
<glyph unicode="G" d="M100 223v953l224 225h393l223 -225v-195h-281v139h-278v-839h278v278h-139v281h420v-617l-223 -223h-393z" />
<glyph unicode="H" horiz-adv-x="1318" d="M100 0v281h140v839h-140v281h539v-281h-119v-280h281v280h-121v281h541v-281h-142v-839h142v-281h-541v281h121v278h-281v-278h119v-281h-539z" />
<glyph unicode="I" horiz-adv-x="739" d="M100 0v281h140v839h-140v281h539v-281h-119v-839h119v-281h-539z" />
<glyph unicode="J" horiz-adv-x="1179" d="M100 223v197h281v-139h278v839h-139v281h559v-281h-139v-897l-223 -223h-393z" />
<glyph unicode="K" horiz-adv-x="1280" d="M100 0v281h140v839h-140v281h539v-281h-119v-372l281 372h-121v281h541v-281h-113l-324 -415l324 -424h113v-281h-541v281h104l-180 231l-84 -113v-118h119v-281h-539z" />
<glyph unicode="L" horiz-adv-x="1179" d="M100 0v281h140v839h-140v281h559v-281h-139v-839h281v139h278v-420h-979z" />
<glyph unicode="M" horiz-adv-x="1579" d="M100 0v281h140v839h-140v281h420l281 -680l278 680h402v-281h-142v-839h142v-281h-541v281h139v399l-274 -688l-285 688v-399h135v-281h-555z" />
<glyph unicode="N" horiz-adv-x="1458" d="M100 0v281h140v839h-140v281h420l420 -801v520h-139v281h559v-281h-139v-1120h-281l-420 801v-520h139v-281h-559z" />
<glyph unicode="O" d="M100 223v953l224 225h393l223 -225v-953l-223 -223h-393zM381 281h278v839h-278v-839z" />
<glyph unicode="P" horiz-adv-x="1179" d="M100 0v281h140v839h-140v281h756l223 -225v-392l-223 -225h-336v-278h139v-281h-559zM520 840h281v280h-281v-280z" />
<glyph unicode="Q" d="M100 223v953l224 225h393l223 -225v-953l-223 -223h-58v-281h-278v281h-57zM381 281h278v839h-278v-839z" />
<glyph unicode="R" horiz-adv-x="1318" d="M100 0v281h140v839h-140v281h756l223 -225v-392l-84 -84l84 -84v-335h142v-281h-541v281h121v278h-281v-278h119v-281h-539zM520 840h281v280h-281v-280z" />
<glyph unicode="S" d="M100 223v197h281v-139h278v278h-335l-224 225v392l224 225h393l223 -225v-195h-281v139h-278v-280h332l227 -224v-393l-223 -223h-393z" />
<glyph unicode="T" horiz-adv-x="1318" d="M100 981v420h1121v-420h-281v139h-139v-839h139v-281h-559v281h139v839h-139v-139h-281z" />
<glyph unicode="U" horiz-adv-x="1318" d="M100 1120v281h539v-281h-119v-839h281v839h-121v281h541v-281h-142v-897l-223 -223h-391l-225 223v897h-140z" />
<glyph unicode="V" horiz-adv-x="1318" d="M100 1120v281h539v-281h-119l139 -561l142 561h-121v281h541v-281h-142l-278 -1120h-281l-280 1120h-140z" />
<glyph unicode="W" horiz-adv-x="1599" d="M100 1120v281h559v-281h-139l72 -420l209 420l207 -420l71 420h-139v281h559v-281h-139l-139 -839h139v-281h-541v281h121l-139 278l-142 -278h121v-281h-540v281h141l-141 839h-140z" />
<glyph unicode="X" horiz-adv-x="1318" d="M100 0v281h140l280 419l-280 420h-140v281h539v-281h-119l139 -211l142 211h-121v281h541v-281h-142l-278 -420l278 -419h142v-281h-541v281h121l-142 208l-139 -208h119v-281h-539z" />
<glyph unicode="Y" horiz-adv-x="1318" d="M100 1120v281h539v-281h-119l139 -211l142 211h-121v281h541v-281h-142l-278 -420v-419h139v-281h-559v281h139v419l-280 420h-140z" />
<glyph unicode="Z" horiz-adv-x="1179" d="M100 0v281l639 839h-358v-139h-281v420h979v-281l-639 -839h361v139h278v-420h-979z" />
<glyph unicode="a" horiz-adv-x="1179" d="M100 0l351 1401h278l350 -1401h-278l-72 281h-278l-70 -281h-281zM520 559h139l-69 281z" />
<glyph unicode="b" d="M100 0v1401h617l223 -225v-392l-84 -84l84 -84v-393l-223 -223h-617zM381 281h278v278h-278v-278zM381 840h278v280h-278v-280z" />
<glyph unicode="c" d="M100 223v953l224 225h393l223 -225v-195h-281v139h-278v-839h278v139h281v-197l-223 -223h-393z" />
<glyph unicode="d" d="M100 0v1401h617l223 -225v-953l-223 -223h-617zM381 281h278v839h-278v-839z" />
<glyph unicode="e" d="M100 0v1401h840v-281h-559v-280h420v-281h-420v-278h559v-281h-840z" />
<glyph unicode="f" d="M100 0v1401h840v-281h-559v-280h420v-281h-420v-559h-281z" />
<glyph unicode="g" d="M100 223v953l224 225h393l223 -225v-195h-281v139h-278v-839h278v278h-139v281h420v-617l-223 -223h-393z" />
<glyph unicode="h" d="M100 0v1401h281v-561h278v561h281v-1401h-281v559h-278v-559h-281z" />
<glyph unicode="i" horiz-adv-x="479" d="M100 0v1401h281v-1401h-281z" />
<glyph unicode="j" d="M100 223v197h281v-139h278v1120h281v-1178l-223 -223h-393z" />
<glyph unicode="k" horiz-adv-x="1179" d="M100 0v1401h281v-557l420 557h278l-436 -570l436 -831h-278l-309 643l-111 -143v-500h-281z" />
<glyph unicode="l" d="M100 0v1401h281v-1120h559v-281h-840z" />
<glyph unicode="m" horiz-adv-x="1298" d="M100 0v1401h281l268 -662l291 662h281v-1401h-281v659l-291 -659l-268 655v-655h-281z" />
<glyph unicode="n" horiz-adv-x="1179" d="M100 0v1401h281l420 -801v801h278v-1401h-278l-420 801v-801h-281z" />
<glyph unicode="o" d="M100 223v953l224 225h393l223 -225v-953l-223 -223h-393zM381 281h278v839h-278v-839z" />
<glyph unicode="p" d="M100 0v1401h617l223 -225v-392l-223 -225h-336v-559h-281zM381 844h278v276h-278v-276z" />
<glyph unicode="q" d="M100 223v953l224 225h393l223 -225v-953l-223 -223h-58v-281h-278v281h-57zM381 281h278v839h-278v-839z" />
<glyph unicode="r" d="M100 0v1401h617l223 -225v-392l-84 -84l84 -84v-616h-281v559h-278v-559h-281zM381 840h278v280h-278v-280z" />
<glyph unicode="s" d="M100 223v197h281v-139h278v278h-335l-224 225v392l224 225h393l223 -225v-195h-281v139h-278v-280h332l227 -224v-393l-223 -223h-393z" />
<glyph unicode="t" horiz-adv-x="1318" d="M100 1120v281h1121v-281h-420v-1120h-281v1120h-420z" />
<glyph unicode="u" d="M100 223v1178h281v-1120h278v1120h281v-1178l-223 -223h-393z" />
<glyph unicode="v" horiz-adv-x="1179" d="M100 1401h281l209 -842l211 842h278l-350 -1401h-278z" />
<glyph unicode="w" horiz-adv-x="1599" d="M100 1401h281l168 -742l110 461h281l113 -461l168 742h278l-311 -1401h-281l-106 487l-109 -487h-280z" />
<glyph unicode="x" horiz-adv-x="1318" d="M100 0l420 700l-420 701h281l278 -467l281 467h281l-420 -701l420 -700h-281l-281 467l-278 -467h-281z" />
<glyph unicode="y" horiz-adv-x="1318" d="M100 1401h281l278 -467l281 467h281l-420 -701v-700h-281v700z" />
<glyph unicode="z" d="M100 0v281l521 839h-521v281h840v-281l-520 -839h520v-281h-840z" />
<glyph unicode="&#xaa;" horiz-adv-x="1179" d="M100 0l351 1401h278l350 -1401h-278l-72 281h-278l-70 -281h-281zM520 559h139l-69 281z" />
<glyph unicode="&#xad;" d="M100 559v281h840v-281h-840z" />
<glyph unicode="&#xb2;" d="M100 0v616l224 224h335v280h-278v-139h-281v195l224 225h393l223 -225v-392l-223 -225h-336v-278h278v139h281v-420h-840z" />
<glyph unicode="&#xb3;" d="M100 223v197h281v-139h278v278h-139v281h139v280h-278v-139h-281v195l224 225h393l223 -225v-392l-84 -84l84 -84v-393l-223 -223h-393z" />
<glyph unicode="&#xb9;" d="M240 0v281h141v700h-141v211l141 209h278v-1120h142v-281h-561z" />
<glyph unicode="&#xba;" d="M100 223v953l224 225h393l223 -225v-953l-223 -223h-393zM381 281h278v839h-278v-839z" />
<glyph unicode="&#x152;" horiz-adv-x="2217" d="M1140 0v281h140v839h-140v281h979v-420h-278v139h-281v-280h281v-281h-281v-278h281v139h278v-420h-979zM100 223v953l224 225h393l223 -225v-953l-223 -223h-393zM381 281h278v839h-278v-839z" />
<glyph unicode="&#x153;" horiz-adv-x="2078" d="M1140 0v1401h840v-281h-559v-280h420v-281h-420v-278h559v-281h-840zM100 223v953l224 225h393l223 -225v-953l-223 -223h-393zM381 281h278v839h-278v-839z" />
<glyph unicode="&#x2000;" horiz-adv-x="839" />
<glyph unicode="&#x2001;" horiz-adv-x="1679" />
<glyph unicode="&#x2002;" horiz-adv-x="839" />
<glyph unicode="&#x2003;" horiz-adv-x="1679" />
<glyph unicode="&#x2004;" horiz-adv-x="559" />
<glyph unicode="&#x2005;" horiz-adv-x="419" />
<glyph unicode="&#x2006;" horiz-adv-x="278" />
<glyph unicode="&#x2007;" horiz-adv-x="278" />
<glyph unicode="&#x2008;" horiz-adv-x="208" />
<glyph unicode="&#x2009;" horiz-adv-x="335" />
<glyph unicode="&#x200a;" horiz-adv-x="92" />
<glyph unicode="&#x2010;" d="M100 559v281h840v-281h-840z" />
<glyph unicode="&#x2011;" d="M100 559v281h840v-281h-840z" />
<glyph unicode="&#x2012;" d="M100 559v281h840v-281h-840z" />
<glyph unicode="&#x2013;" horiz-adv-x="1024" d="M100 559v281h824v-281h-824z" />
<glyph unicode="&#x2014;" horiz-adv-x="2048" d="M100 559v281h1848v-281h-1848z" />
<glyph unicode="&#x2019;" horiz-adv-x="479" d="M100 840l140 280h-140v281h281v-281l-141 -280h-140z" />
<glyph unicode="&#x201c;" horiz-adv-x="878" d="M100 840l140 280h-140v281h281v-281l-141 -280h-140zM500 840l139 280h-139v281h280v-281l-141 -280h-139z" />
<glyph unicode="&#x201d;" horiz-adv-x="878" d="M100 840l140 280h-140v281h281v-281l-141 -280h-140zM500 840l139 280h-139v281h280v-281l-141 -280h-139z" />
<glyph unicode="&#x2026;" horiz-adv-x="1439" d="M1061 0v281h281v-281h-281zM579 0v281h281v-281h-281zM100 0v281h281v-281h-281z" />
<glyph unicode="&#x202f;" horiz-adv-x="335" />
<glyph unicode="&#x205f;" horiz-adv-x="419" />
<glyph unicode="&#x2122;" horiz-adv-x="2899" d="M1421 0v281h140v839h-140v281h420l281 -680l278 680h402v-281h-142v-839h142v-281h-541v281h139v399l-274 -688l-285 688v-399h135v-281h-555zM100 981v420h1121v-420h-281v139h-139v-839h139v-281h-559v281h139v839h-139v-139h-281z" />
<glyph unicode="&#xe000;" horiz-adv-x="1400" d="M0 1400h1400v-1400h-1400v1400z" />
<glyph unicode="&#xfb01;" horiz-adv-x="1519" d="M1140 0v1401h281v-1401h-281zM100 0v1401h840v-281h-559v-280h420v-281h-420v-559h-281z" />
<glyph unicode="&#xfb02;" horiz-adv-x="2078" d="M1140 0v1401h281v-1120h559v-281h-840zM100 0v1401h840v-281h-559v-280h420v-281h-420v-559h-281z" />
<glyph unicode="&#xfb03;" horiz-adv-x="2560" d="M2181 0v1401h281v-1401h-281zM1140 0v1401h840v-281h-559v-280h420v-281h-420v-559h-281zM100 0v1401h840v-281h-559v-280h420v-281h-420v-559h-281z" />
<glyph unicode="&#xfb04;" horiz-adv-x="3119" d="M2181 0v1401h281v-1120h559v-281h-840zM1140 0v1401h840v-281h-559v-280h420v-281h-420v-559h-281zM100 0v1401h840v-281h-559v-280h420v-281h-420v-559h-281z" />
</font>
</defs>
</svg>
