<?xml version="1.0" standalone="no"?>
<!DOCTYPE svg PUBLIC "-//W3C//DTD SVG 1.1//EN" "http://www.w3.org/Graphics/SVG/1.1/DTD/svg11.dtd" >
<svg xmlns="http://www.w3.org/2000/svg">
<metadata>
This is a custom SVG webfont generated by Font Squirrel.
Copyright   : Copyright  1998 by Matthew Welch All Rights Reserved
</metadata>
<defs>
<font id="webfontjYXIjpIa" horiz-adv-x="999" >
<font-face units-per-em="2048" ascent="1700" descent="-348" />
<missing-glyph horiz-adv-x="800" />
<glyph unicode=" "  horiz-adv-x="800" />
<glyph unicode="&#x09;" horiz-adv-x="800" />
<glyph unicode="&#xa0;" horiz-adv-x="800" />
<glyph unicode="!" horiz-adv-x="399" d="M100 0v201h199v-201h-199zM100 899v502h199v-502l-49 -500h-100z" />
<glyph unicode="&#x22;" horiz-adv-x="698" d="M100 999l101 201h-101v201h199v-201l-98 -201h-101zM399 999l101 201h-101v201h201v-201l-100 -201h-101z" />
<glyph unicode="#" horiz-adv-x="1198" d="M100 399v201h199v201h-199v198h199v201h201v-201h200v201h199v-201h201v-198h-201v-201h201v-201h-201v-198h-199v198h-200v-198h-201v198h-199zM500 600h200v201h-200v-201z" />
<glyph unicode="$" d="M100 360v140h199v-101h401v201h-440l-160 160v280l160 160h139v201h201v-201h139l160 -160v-141h-199v100h-401v-198h440l160 -162v-279l-160 -159h-139v-201h-201v201h-139z" />
<glyph unicode="'" horiz-adv-x="399" d="M100 999l101 201h-101v201h199v-201l-98 -201h-101z" />
<glyph unicode="+" d="M100 600v201h299v299h201v-299h299v-201h-299v-301h-201v301h-299z" />
<glyph unicode="," horiz-adv-x="399" d="M100 0v201h199v-201l-98 -201h-101l101 201h-101z" />
<glyph unicode="-" d="M100 600v201h799v-201h-799z" />
<glyph unicode="." horiz-adv-x="399" d="M100 0v201h199v-201h-199z" />
<glyph unicode="0" d="M100 160v1079l160 162h479l160 -162v-1079l-160 -160h-479zM299 201h401v999h-401v-999z" />
<glyph unicode="1" d="M201 0v201h198v852h-147v147l147 201h201v-1200h201v-201h-600z" />
<glyph unicode="2" d="M100 0v639l160 162h440v399h-401v-100h-199v139l160 162h479l160 -162v-479l-160 -160h-440v-399h401v98h199v-299h-799z" />
<glyph unicode="3" d="M100 160v139h199v-98h401v399h-200v201h200v399h-401v-100h-199v139l160 162h479l160 -162v-479l-59 -60l59 -61v-479l-160 -160h-479z" />
<glyph unicode="4" d="M100 399v201l500 801h201v-801h98v-201h-98v-198h98v-201h-399v201h100v198h-500zM352 600h248v399z" />
<glyph unicode="5" d="M100 160v139h199v-98h401v399h-440l-160 160v641h799v-201h-600v-399h440l160 -162v-479l-160 -160h-479z" />
<glyph unicode="6" d="M100 160v1079l160 162h479l160 -162v-139h-199v100h-401v-399h440l160 -162v-479l-160 -160h-479zM299 201h401v399h-401v-399z" />
<glyph unicode="7" d="M100 0v201h148l395 999h-344v-100h-199v301h799v-201l-412 -999h150v-201h-537z" />
<glyph unicode="8" d="M100 160v479l60 61l-60 60v479l160 162h479l160 -162v-479l-59 -60l59 -61v-479l-160 -160h-479zM299 201h401v399h-401v-399zM299 801h401v399h-401v-399z" />
<glyph unicode="9" d="M100 160v139h199v-98h401v399h-440l-160 160v479l160 162h479l160 -162v-1079l-160 -160h-479zM299 801h401v399h-401v-399z" />
<glyph unicode=":" horiz-adv-x="399" d="M100 0v201h199v-201h-199zM100 600v201h199v-201h-199z" />
<glyph unicode=";" horiz-adv-x="399" d="M100 0v201h199v-201l-98 -201h-101l101 201h-101zM100 600v201h199v-201h-199z" />
<glyph unicode="=" d="M100 399v201h799v-201h-799zM100 801v198h799v-198h-799z" />
<glyph unicode="?" d="M100 999v240l160 162h479l160 -162v-479l-160 -160h-139v-201h-201v240l160 162h141v399h-401v-201h-199zM399 0v201h201v-201h-201z" />
<glyph unicode="A" horiz-adv-x="1198" d="M100 0v201h101l299 1200h200l299 -1200h101v-201h-400v201h101l-51 198h-299l-52 -198h101v-201h-400zM500 600h200l-100 399z" />
<glyph unicode="B" horiz-adv-x="1099" d="M100 0v201h101v999h-101v201h740l159 -162v-479l-59 -60l59 -61v-479l-159 -160h-740zM399 201h402v399h-402v-399zM399 801h402v399h-402v-399z" />
<glyph unicode="C" d="M100 160v1079l160 162h479l160 -162v-240h-199v201h-401v-999h401v198h199v-239l-160 -160h-479z" />
<glyph unicode="D" horiz-adv-x="1099" d="M100 0v201h101v999h-101v201h740l159 -162v-1079l-159 -160h-740zM399 201h402v999h-402v-999z" />
<glyph unicode="E" horiz-adv-x="1099" d="M100 0v201h101v999h-101v201h899v-301h-198v100h-402v-399h201v98h201v-399h-201v100h-201v-399h402v98h198v-299h-899z" />
<glyph unicode="F" horiz-adv-x="1099" d="M100 0v201h101v999h-101v201h899v-301h-198v100h-402v-399h201v98h201v-399h-201v100h-201v-399h101v-201h-400z" />
<glyph unicode="G" d="M100 160v1079l160 162h479l160 -162v-240h-199v201h-401v-999h401v399h-200v201h399v-641l-160 -160h-479z" />
<glyph unicode="H" horiz-adv-x="1198" d="M100 0v201h101v999h-101v201h400v-201h-101v-399h402v399h-101v201h400v-201h-101v-999h101v-201h-400v201h101v399h-402v-399h101v-201h-400z" />
<glyph unicode="I" horiz-adv-x="598" d="M100 0v201h101v999h-101v201h400v-201h-101v-999h101v-201h-400z" />
<glyph unicode="J" horiz-adv-x="1099" d="M100 160v239h199v-198h401v999h-100v201h399v-201h-100v-1040l-160 -160h-479z" />
<glyph unicode="K" horiz-adv-x="1280" d="M100 0v201h101v999h-101v201h400v-201h-101v-399l402 399h-101v201h480v-201h-101l-440 -440l440 -559h101v-201h-445v201h101l-336 420l-101 -101v-319h101v-201h-400z" />
<glyph unicode="L" horiz-adv-x="1099" d="M100 0v201h101v999h-101v201h400v-201h-101v-999h402v98h198v-299h-899z" />
<glyph unicode="M" horiz-adv-x="1499" d="M100 0v201h101v999h-101v201h299l351 -860l350 860h301v-201h-101v-999h101v-201h-402v201h101v659l-350 -860l-351 860v-659h101v-201h-400z" />
<glyph unicode="N" horiz-adv-x="1298" d="M100 0v201h101v999h-101v201h299l500 -961v760h-98v201h399v-201h-100v-1200h-201l-500 961v-760h101v-201h-400z" />
<glyph unicode="O" d="M100 160v1079l160 162h479l160 -162v-1079l-160 -160h-479zM299 201h401v999h-401v-999z" />
<glyph unicode="P" horiz-adv-x="1099" d="M100 0v201h101v999h-101v201h740l159 -162v-479l-159 -160h-441v-399h101v-201h-400zM399 801h402v399h-402v-399z" />
<glyph unicode="Q" d="M100 160v1079l160 162h479l160 -162v-1079l-160 -160h-139v-100h-201v100h-139zM299 201h100v98h201v-98h100v999h-401v-999z" />
<glyph unicode="R" horiz-adv-x="1198" d="M100 0v201h101v999h-101v201h740l159 -162v-479l-59 -60l59 -61v-438h101v-201h-400v201h101v399h-402v-399h101v-201h-400zM399 801h402v399h-402v-399z" />
<glyph unicode="S" d="M100 160v139h199v-98h401v399h-440l-160 160v479l160 162h479l160 -162v-139h-199v100h-401v-399h440l160 -162v-479l-160 -160h-479z" />
<glyph unicode="T" horiz-adv-x="1198" d="M100 1100v301h1000v-301h-201v100h-199v-999h101v-201h-402v201h101v999h-201v-100h-199z" />
<glyph unicode="U" horiz-adv-x="1198" d="M100 1200v201h400v-201h-101v-999h402v999h-101v201h400v-201h-101v-1040l-159 -160h-480l-159 160v1040h-101z" />
<glyph unicode="V" horiz-adv-x="1198" d="M100 1200v201h400v-201h-101l201 -801l201 801h-101v201h400v-201h-101l-299 -1200h-200l-299 1200h-101z" />
<glyph unicode="W" horiz-adv-x="1599" d="M100 1200v201h400v-201h-101l142 -700l260 520l260 -520l139 700h-100v201h399v-201h-98l-201 -999h100v-201h-401v201h100l-198 399l-201 -399h100v-201h-401v201h100l-198 999h-101z" />
<glyph unicode="X" horiz-adv-x="1198" d="M100 0v201h101l299 499l-299 500h-101v201h400v-201h-101l201 -334l201 334h-101v201h400v-201h-101l-299 -500l299 -499h101v-201h-400v201h101l-201 331l-201 -331h101v-201h-400z" />
<glyph unicode="Y" horiz-adv-x="1198" d="M100 1200v201h400v-201h-101l201 -334l201 334h-101v201h400v-201h-101l-299 -500v-499h101v-201h-402v201h101v499l-299 500h-101z" />
<glyph unicode="Z" horiz-adv-x="1198" d="M100 0v201l740 999h-541v-100h-199v301h1000v-201l-740 -999h539v98h201v-299h-1000z" />
<glyph unicode="a" horiz-adv-x="1099" d="M100 0l351 1401h198l350 -1401h-198l-101 399h-301l-100 -399h-199zM451 600h198l-98 399z" />
<glyph unicode="b" d="M100 0v1401h639l160 -162v-479l-59 -60l59 -61v-479l-160 -160h-639zM299 201h401v399h-401v-399zM299 801h401v399h-401v-399z" />
<glyph unicode="c" d="M100 160v1079l160 162h479l160 -162v-240h-199v201h-401v-999h401v198h199v-239l-160 -160h-479z" />
<glyph unicode="d" d="M100 0v1401h639l160 -162v-1079l-160 -160h-639zM299 201h401v999h-401v-999z" />
<glyph unicode="e" d="M100 0v1401h799v-201h-600v-399h401v-201h-401v-399h600v-201h-799z" />
<glyph unicode="f" d="M100 0v1401h799v-201h-600v-399h401v-201h-401v-600h-199z" />
<glyph unicode="g" d="M100 160v1079l160 162h479l160 -162v-240h-199v201h-401v-999h401v399h-200v201h399v-641l-160 -160h-479z" />
<glyph unicode="h" d="M100 0v1401h199v-600h401v600h199v-1401h-199v600h-401v-600h-199z" />
<glyph unicode="i" horiz-adv-x="399" d="M100 0v1401h199v-1401h-199z" />
<glyph unicode="j" d="M100 160v239h199v-198h401v1200h199v-1241l-160 -160h-479z" />
<glyph unicode="k" horiz-adv-x="1198" d="M100 0v1401h199v-553l553 553h248l-559 -561l559 -840h-244l-457 700l-100 -100v-600h-199z" />
<glyph unicode="l" d="M100 0v1401h199v-1200h600v-201h-799z" />
<glyph unicode="m" horiz-adv-x="1298" d="M100 0v1401h199l350 -860l350 860h201v-1401h-201v860l-350 -860l-350 860v-860h-199z" />
<glyph unicode="n" horiz-adv-x="1099" d="M100 0v1401h199l502 -961v961h198v-1401h-198l-502 961v-961h-199z" />
<glyph unicode="o" d="M100 160v1079l160 162h479l160 -162v-1079l-160 -160h-479zM299 201h401v999h-401v-999z" />
<glyph unicode="p" d="M100 0v1401h639l160 -162v-479l-160 -160h-440v-600h-199zM299 801h401v399h-401v-399z" />
<glyph unicode="q" d="M100 160v1079l160 162h479l160 -162v-1079l-160 -160h-139v-100h-201v100h-139zM299 201h100v98h201v-98h100v999h-401v-999z" />
<glyph unicode="r" d="M100 0v1401h639l160 -162v-479l-59 -60l59 -61v-639h-199v600h-401v-600h-199zM299 801h401v399h-401v-399z" />
<glyph unicode="s" d="M100 160v139h199v-98h401v399h-440l-160 160v479l160 162h479l160 -162v-139h-199v100h-401v-399h440l160 -162v-479l-160 -160h-479z" />
<glyph unicode="t" d="M100 1200v201h799v-201h-299v-1200h-201v1200h-299z" />
<glyph unicode="u" d="M100 160v1241h199v-1200h401v1200h199v-1241l-160 -160h-479z" />
<glyph unicode="v" horiz-adv-x="1099" d="M100 1401h199l252 -1002l250 1002h198l-350 -1401h-198z" />
<glyph unicode="w" horiz-adv-x="1599" d="M100 1401h199l201 -1002l200 801h199l201 -801l200 1002h199l-299 -1401h-201l-198 801l-201 -801h-201z" />
<glyph unicode="x" horiz-adv-x="1198" d="M100 0l400 700l-400 701h199l301 -527l299 527h201l-400 -701l400 -700h-201l-299 524l-301 -524h-199z" />
<glyph unicode="y" horiz-adv-x="1198" d="M100 1401h199l301 -527l299 527h201l-400 -701v-700h-200v700z" />
<glyph unicode="z" d="M100 0v201l539 999h-539v201h799v-201l-539 -999h539v-201h-799z" />
<glyph unicode="&#xaa;" horiz-adv-x="1099" d="M100 0l351 1401h198l350 -1401h-198l-101 399h-301l-100 -399h-199zM451 600h198l-98 399z" />
<glyph unicode="&#xad;" d="M100 600v201h799v-201h-799z" />
<glyph unicode="&#xb2;" d="M100 0v639l160 162h440v399h-401v-100h-199v139l160 162h479l160 -162v-479l-160 -160h-440v-399h401v98h199v-299h-799z" />
<glyph unicode="&#xb3;" d="M100 160v139h199v-98h401v399h-200v201h200v399h-401v-100h-199v139l160 162h479l160 -162v-479l-59 -60l59 -61v-479l-160 -160h-479z" />
<glyph unicode="&#xb9;" d="M201 0v201h198v852h-147v147l147 201h201v-1200h201v-201h-600z" />
<glyph unicode="&#xba;" d="M100 160v1079l160 162h479l160 -162v-1079l-160 -160h-479zM299 201h401v999h-401v-999z" />
<glyph unicode="&#x152;" horiz-adv-x="2099" d="M1099 0v201h101v999h-101v201h899v-301h-198v100h-402v-399h201v98h201v-399h-201v100h-201v-399h402v98h198v-299h-899zM100 160v1079l160 162h479l160 -162v-1079l-160 -160h-479zM299 201h401v999h-401v-999z" />
<glyph unicode="&#x153;" horiz-adv-x="1998" d="M1099 0v1401h799v-201h-600v-399h401v-201h-401v-399h600v-201h-799zM100 160v1079l160 162h479l160 -162v-1079l-160 -160h-479zM299 201h401v999h-401v-999z" />
<glyph unicode="&#x2000;" horiz-adv-x="698" />
<glyph unicode="&#x2001;" horiz-adv-x="1398" />
<glyph unicode="&#x2002;" horiz-adv-x="698" />
<glyph unicode="&#x2003;" horiz-adv-x="1398" />
<glyph unicode="&#x2004;" horiz-adv-x="464" />
<glyph unicode="&#x2005;" horiz-adv-x="348" />
<glyph unicode="&#x2006;" horiz-adv-x="231" />
<glyph unicode="&#x2007;" horiz-adv-x="231" />
<glyph unicode="&#x2008;" horiz-adv-x="174" />
<glyph unicode="&#x2009;" horiz-adv-x="278" />
<glyph unicode="&#x200a;" horiz-adv-x="75" />
<glyph unicode="&#x2010;" d="M100 600v201h799v-201h-799z" />
<glyph unicode="&#x2011;" d="M100 600v201h799v-201h-799z" />
<glyph unicode="&#x2012;" d="M100 600v201h799v-201h-799z" />
<glyph unicode="&#x2013;" horiz-adv-x="1024" d="M100 600v201h824v-201h-824z" />
<glyph unicode="&#x2014;" horiz-adv-x="2048" d="M100 600v201h1848v-201h-1848z" />
<glyph unicode="&#x2019;" horiz-adv-x="399" d="M100 999l101 201h-101v201h199v-201l-98 -201h-101z" />
<glyph unicode="&#x201c;" horiz-adv-x="698" d="M100 999l101 201h-101v201h199v-201l-98 -201h-101zM399 999l101 201h-101v201h201v-201l-100 -201h-101z" />
<glyph unicode="&#x201d;" horiz-adv-x="698" d="M100 999l101 201h-101v201h199v-201l-98 -201h-101zM399 999l101 201h-101v201h201v-201l-100 -201h-101z" />
<glyph unicode="&#x2026;" horiz-adv-x="1198" d="M901 0v201h199v-201h-199zM499 0v201h199v-201h-199zM100 0v201h199v-201h-199z" />
<glyph unicode="&#x202f;" horiz-adv-x="278" />
<glyph unicode="&#x205f;" horiz-adv-x="348" />
<glyph unicode="&#x2122;" horiz-adv-x="2699" d="M1300 0v201h101v999h-101v201h299l351 -860l350 860h301v-201h-101v-999h101v-201h-402v201h101v659l-350 -860l-351 860v-659h101v-201h-400zM100 1100v301h1000v-301h-201v100h-199v-999h101v-201h-402v201h101v999h-201v-100h-199z" />
<glyph unicode="&#xe000;" horiz-adv-x="1400" d="M0 1400h1400v-1400h-1400v1400z" />
<glyph unicode="&#xfb01;" horiz-adv-x="1398" d="M1099 0v1401h199v-1401h-199zM100 0v1401h799v-201h-600v-399h401v-201h-401v-600h-199z" />
<glyph unicode="&#xfb02;" horiz-adv-x="1998" d="M1099 0v1401h199v-1200h600v-201h-799zM100 0v1401h799v-201h-600v-399h401v-201h-401v-600h-199z" />
<glyph unicode="&#xfb03;" horiz-adv-x="2398" d="M2101 0v1401h199v-1401h-199zM1099 0v1401h799v-201h-600v-399h401v-201h-401v-600h-199zM100 0v1401h799v-201h-600v-399h401v-201h-401v-600h-199z" />
<glyph unicode="&#xfb04;" horiz-adv-x="2998" d="M2101 0v1401h199v-1200h600v-201h-799zM1099 0v1401h799v-201h-600v-399h401v-201h-401v-600h-199zM100 0v1401h799v-201h-600v-399h401v-201h-401v-600h-199z" />
</font>
</defs>
</svg>
