<?xml version="1.0" standalone="no"?>
<!DOCTYPE svg PUBLIC "-//W3C//DTD SVG 1.1//EN" "http://www.w3.org/Graphics/SVG/1.1/DTD/svg11.dtd" >
<svg xmlns="http://www.w3.org/2000/svg">
<metadata>
This is a custom SVG webfont generated by Font Squirrel.
Copyright   : Icons by PJ Onori font creation script by Yann
Designer    : PJ Onori
Foundry     : PJ Onori
</metadata>
<defs>
<font id="IconicFillRegular" horiz-adv-x="2109" >
<font-face units-per-em="2048" ascent="1638" descent="-410" />
<missing-glyph horiz-adv-x="1042" />
<glyph unicode=" "  horiz-adv-x="1042" />
<glyph unicode="&#x09;" horiz-adv-x="1042" />
<glyph unicode="&#xa0;" horiz-adv-x="1042" />
<glyph unicode="!" horiz-adv-x="1853" d="M31 102v256h352l63 512h-415v256h448l64 512h256l-64 -512h512l64 512h256l-64 -512h320v-256h-353l-63 -512h416v-256h-449l-63 -512h-256l63 512h-512l-63 -512h-256l63 512h-319zM639 358h512l63 512h-512z" />
<glyph unicode="&#x22;" d="M31 1126v512h2048v-512h-2048z" />
<glyph unicode="#" d="M33 614.5q0 278.5 137 514t372.5 372.5t514 137t514 -137t373 -372.5t137.5 -514.5q0 -272 -139 -512h-375q-123 0 -203 105q-139 -106 -309 -107q-211 0 -361.5 150.5t-150.5 361.5t150.5 361.5t361.5 150.5h512v-766h207l2 -2q47 135 47 258q0 317 -225.5 542.5 t-543 225.5t-542.5 -225t-225 -542.5t225 -543t542.5 -225.5t542.5 226l183 -181q-141 -143 -327.5 -222t-395.5 -79q-279 0 -514.5 137.5t-372.5 373t-137 514zM799 610.5q0 -106.5 74.5 -181.5t181 -75t181.5 75t75 181v131v125h-256q-106 0 -181 -74.5t-75 -181z" />
<glyph unicode="$" horiz-adv-x="1597" d="M31 1126q0 213 150.5 362.5t361.5 149.5h256h256h256h256v-256h-256v-1792h-256v1792h-256v-1792h-256v1024q-211 0 -361.5 149.5t-150.5 362.5z" />
<glyph unicode="%" horiz-adv-x="1085" d="M29 -156h129q53 0 91 38t38 91v512q0 53 -38 91t-91 38l-127 -2v256h768v-895q0 -53 36.5 -91t90.5 -38h127v-256h-1024v256zM287 1380q0 256 256 256t256 -256t-256 -256t-256 256z" />
<glyph unicode="&#x26;" d="M27 612l1024 1024l362 -362l-403 -404h1067v-514h-1065l403 -403l-362 -363z" />
<glyph unicode="'" d="M31 614l1022 1020l1024 -1022l-363 -362l-403 405v-1067h-514v1067l-404 -403z" />
<glyph unicode="(" d="M29 358v514h1067l-404 404l363 362l1022 -1022l-1022 -1024l-363 363l404 403h-1067z" />
<glyph unicode=")" d="M31 612l362 363l406 -404v1067h514v-1067l403 404l363 -363l-1024 -1024z" />
<glyph unicode="*" d="M31 614l1024 1024l1024 -1024h-256v-1024h-1536v1024h-256zM541 -156h385v385h256v-383h385l-2 916l-512 362l-512 -362v-918z" />
<glyph unicode="+" d="M27 612.5q0 53.5 37.5 91t91 37.5t90.5 -37.5t37 -91t-37 -91.5t-90.5 -38t-91 38t-37.5 91.5zM283 -27q0 129 129 129t129 -129t-129 -129t-129 129zM285 1253q0 129 129 129t129 -129t-129 -129t-129 129zM543 614q0 213 150.5 362.5t361.5 149.5t361.5 -149.5 t150.5 -362.5t-150.5 -362.5t-361.5 -149.5t-361.5 149.5t-150.5 362.5zM922 -282.5q0 53.5 37.5 91t91 37.5t91.5 -37.5t38 -91t-38 -91.5t-91.5 -38t-91 38t-37.5 91.5zM926 1509.5q0 53.5 37.5 91t91 37.5t90.5 -37.5t37 -91t-37 -91.5t-90.5 -38t-91 38t-37.5 91.5z M1562.5 1256.5q0.5 52.5 37 89t90 36.5t90.5 -36q39 -37 39 -90.5t-39 -90.5q-37 -37 -90.5 -37t-90.5 37q-37 39 -36.5 91.5zM1563 -26.5q0 53.5 36.5 90t90 36.5t90.5 -37q39 -37 39 -90t-39 -90q-37 -37 -90.5 -37t-90 37t-36.5 90.5zM1819 614.5q0 53.5 37.5 91t91 37.5 t90.5 -37.5t37 -91t-38 -91.5t-91 -38v2q-53 0 -90 37t-37 90.5z" />
<glyph unicode="," d="M31 868q0 213 150.5 362.5t361.5 149.5l67 -6q68 119 186.5 190.5t258.5 71.5q137 0 256 -70.5t186 -191.5q45 8 70 8v-2q211 0 361.5 -149.5t150.5 -362.5t-150.5 -362.5t-361.5 -149.5h-1024q-211 0 -361.5 149.5t-150.5 362.5zM287 868q0 -106 74.5 -181t181.5 -75 h1024l-2 4q106 0 181 75t75 181.5t-75 181t-181.5 74.5t-181 -74.5t-74.5 -181.5h-256q0 121 55 228.5t149 179.5q-78 104 -204 104q-106 0 -181 -74.5t-75 -181.5q0 -45 16 -90l-240 -90q-31 84 -30 174q-100 -4 -178 -77.5t-78 -176.5z" />
<glyph unicode="-" d="M31 614q0 279 137 514.5t372.5 372.5t514.5 137v-2q279 0 514 -137t372.5 -372.5t137.5 -514.5h-256q0 39 -29 68t-67.5 29t-67.5 -29t-29 -68h-256q0 39 -27.5 68t-68.5 29t-68.5 -29t-27.5 -68v-639q0 -158 -113 -270.5t-270.5 -112.5t-270 113t-112.5 270h256 q0 -51 36.5 -89t90 -38t91.5 37t38 90v641q0 41 -28 69t-68.5 28t-68.5 -28t-28 -69h-256q0 41 -28.5 69t-67.5 28t-67.5 -28t-28.5 -69h-256z" />
<glyph unicode="." d="M31 870h768l256 768l256 -768h768l-631 -487l248 -793l-639 492l-641 -492l248 795z" />
<glyph unicode="/" d="M31 637q0 352 213 628.5t544 372.5q-129 -225 -129 -471q0 -393 278 -670.5t671 -277.5h-2q246 0 471 129q-94 -332 -370.5 -545t-629.5 -213q-285 0 -525.5 140.5t-380.5 381t-140 525.5z" />
<glyph unicode="0" d="M31 1022v47q0 236 167 402.5t402 166.5q139 0 257 -66t198 -179q80 113 197.5 179t256.5 66q236 0 403 -166.5t167 -402.5v-47l-1024 -1176z" />
<glyph unicode="1" d="M33 481v256l301 129q16 45 33 76l-125 301l180 180l305 -123q37 18 74 31l127 303h256l129 -303q33 -10 71 -28l306 124l180 -180l-123 -307q12 -29 27 -70l305 -127v-256l-305 -133q-14 -41 -27 -69l127 -305l-180 -181l-308 123q-39 -18 -71 -28l-127 -306h-256 l-129 303q-37 12 -74 31l-303 -125l-180 180l121 304q-16 31 -33 75zM668 610.5q0 -157.5 112.5 -270.5t272.5 -113l-4 -4q160 0 272.5 113t112.5 272.5t-113 272t-270.5 112.5t-270 -112.5t-112.5 -270z" />
<glyph unicode="2" d="M29 -410l897 768l-383 256l1536 1024l-899 -1024l385 -256z" />
<glyph unicode="3" d="M27 100l780 781q-10 61 -10 116q0 266 187.5 453.5t453.5 187.5l-2 2q266 0 453.5 -187t187.5 -453.5t-187.5 -454t-453.5 -187.5q-55 0 -117 11l-12 -13v-256h-256v-256h-256v-256h-768v512zM1307 1001.5q0 -53.5 37.5 -91.5t91 -38t91.5 38t38 91.5t-38 91t-91.5 37.5 t-91 -37.5t-37.5 -91z" />
<glyph unicode="4" d="M31 -26.5q0 51.5 35 85.5q20 20 107 64.5t164 77.5l77 32q-127 -301 -174 -348l-2 2q-35 -35 -86.5 -34.5t-86 35t-34.5 86zM31 868q0 213 150.5 362.5t361.5 149.5l67 -6q68 119 186.5 190.5t258.5 71.5q137 0 254.5 -70.5t185.5 -191.5q49 8 72 8v-2 q211 0 361.5 -149.5t150.5 -362.5t-150.5 -362.5t-361.5 -149.5h-1024q-211 0 -361.5 149.5t-150.5 362.5zM287 868q0 -106 74.5 -181t181.5 -75h1024l-2 4q106 0 181 75t75 181.5t-75 181t-181.5 74.5t-181 -74.5t-74.5 -181.5h-256q0 121 55 228.5t149 179.5 q-78 104 -204 104q-106 0 -181 -74.5t-75 -181.5q0 -45 16 -90l-240 -90q-31 84 -30 174q-100 -4 -178 -77.5t-78 -176.5zM540.5 -24.5q0.5 51.5 34.5 85.5q23 20 110 64.5t163 77.5l76 33q-125 -302 -174 -349v2q-35 -35 -86.5 -34.5t-88.5 34.5q-35 35 -34.5 86.5z M1053 -22.5q0 51.5 34 85.5q20 20 107.5 64.5t163.5 77.5l76 33q-125 -302 -172 -349l-2 2q-35 -35 -86.5 -34.5t-86 35t-34.5 86z" />
<glyph unicode="5" d="M31 614.5q0 278.5 137 514t372.5 372.5t514 137t514 -137t373 -372.5t137.5 -514t-137.5 -514t-373 -373t-514 -137.5t-514 137.5t-372.5 373t-137 514zM285 612q0 -244 143 -442l1069 1069q-198 143 -442 143l-2 -2q-317 0 -542.5 -225t-225.5 -543zM610 -12 q199 -144 443 -144h2q317 0 542.5 225.5t225.5 542.5q0 244 -144 443z" />
<glyph unicode="6" d="M31 102v1004l1030 -483l1018 481v-1002h-2048zM31 1389v249h2048v-249l-1020 -484z" />
<glyph unicode="7" d="M31 -410l2 727l1171 1172q150 150 362.5 150t362.5 -150h-2q150 -150 150 -363t-150 -362l-1173 -1174h-723zM287 102h254v-256h106l1100 1098l-363 363l-1097 -1098v-107z" />
<glyph unicode="8" d="M31 754l364 364l400 -399l919 919l365 -364l-1284 -1284z" />
<glyph unicode="9" d="M31 614.5q0 278.5 137 514t372.5 372.5t514 137t514 -137t373 -372.5t137.5 -514t-137.5 -514t-373 -373t-514 -137.5t-514 137.5t-372.5 373t-137 514zM424 612l471 -471l797 797l-181 180l-616 -616l-291 291z" />
<glyph unicode=":" d="M31 0l614 614l-614 615l409 409l615 -614l614 614l410 -409l-615 -615l615 -614l-410 -410l-614 615l-615 -615z" />
<glyph unicode=";" d="M31 614.5q0 278.5 137 514t372.5 372.5t514 137t514 -137t373 -372.5t137.5 -514t-137.5 -514t-373 -373t-514 -137.5t-514 137.5t-372.5 373t-137 514zM549 289l180 -180l326 325l325 -325l181 180l-326 325l326 326l-181 180l-325 -325l-326 325l-180 -180l325 -326z " />
<glyph unicode="&#x3c;" d="M31 102v768q0 317 225 542.5t543 225.5v-256q-213 0 -362.5 -150.5t-149.5 -361.5h512v-768h-768zM1311 102v768q0 317 225 542.5t543 225.5v-256q-211 0 -361.5 -150.5t-150.5 -361.5h512v-768h-768z" />
<glyph unicode="=" d="M31 102v256q211 0 361.5 150.5t150.5 361.5h-512v768h768v-768q0 -317 -225.5 -542.5t-542.5 -225.5zM1311 102v256q213 0 362.5 150.5t149.5 361.5h-512v768h768v-768q0 -317 -225.5 -542.5t-542.5 -225.5z" />
<glyph unicode="&#x3e;" d="M31 358v512h768v768h512v-768h768v-512h-768v-768h-512v768h-768z" />
<glyph unicode="?" horiz-adv-x="1085" d="M33 1133q0 213 149 362q145 145 362.5 145t362.5 -145q150 -150 150 -362.5t-150 -362.5l-428 -428q-18 -18 -18 -45t18.5 -45.5t45 -18.5t45 18.5t18.5 45.5h256q0 -133 -94.5 -227.5t-227.5 -94.5t-227 94.5t-94 227.5t94 227l428 428q74 74 74 180.5t-74 180 t-180.5 73.5t-180 -73.5t-73.5 -179.5h-256zM389 -283q0 129 129 129t129 -129t-129 -129t-129 129z" />
<glyph unicode="@" d="M29 741q0 244 119.5 451t326.5 326.5t450.5 119.5t450.5 -119.5t327 -326.5t120 -451v-129h256l-512 -512l-512 512h256v129q0 266 -187.5 453.5t-454 187.5t-453.5 -187t-187 -454z" />
<glyph unicode="A" horiz-adv-x="1597" d="M29 -410v2048h897l639 -639v-1409h-1536zM791 870h512l-512 512v-512z" />
<glyph unicode="B" d="M31 1126v256h506v256h256v-256h512v256h256v-256h518v-256h-518h-256h-512h-256h-506zM287 102v256h1536v-256h-1536zM287 -154h1536l-256 -256h-1280v256zM287 614v256h1536v-256h-1536z" />
<glyph unicode="C" horiz-adv-x="1085" d="M31 1126q0 213 150.5 362.5t361.5 149.5t361.5 -149.5t150.5 -362.5q0 -125 -128 -509t-256 -705l-128 -322q-57 141 -142.5 356.5t-227.5 635t-142 544.5zM287 1126.5q0 -106.5 74.5 -181.5t181 -75t181.5 75t75 181.5t-75 181t-181.5 74.5t-181 -74.5t-74.5 -181z" />
<glyph unicode="D" d="M38 964q11 134 77.5 254.5t178.5 214t307.5 148.5t453.5 55q168 0 305 -17t275.5 -68.5t232.5 -134.5t152.5 -222t58.5 -324q0 -115 -33 -242.5t-66 -198.5l-32 -71l-1022 -2h-128q-38 0 -97.5 -5t-78 -7t-63.5 -20.5t-59.5 -28.5t-58.5 -47t-69.5 -62.5t-84.5 -85.5 q-49 49 -98.5 139.5t-91.5 209t-56 250.5q-8 74 -8 148q0 58 5 117z" />
<glyph unicode="E" horiz-adv-x="1853" d="M29 741q0 244 119.5 451t326.5 326.5t451 119.5l-2 4q371 0 634 -262t263 -634.5t-263.5 -635t-633.5 -262.5q-100 0 -211 27l-428 -285l2 523q-258 262 -258 628z" />
<glyph unicode="F" d="M31 -410l2 727l1171 1172q152 150 362.5 150t362.5 -150h-2q150 -150 150 -363t-150 -362l-1173 -1174h-723zM283 -154h362q76 76 76 182.5t-76 182.5t-181.5 76t-180.5 -76v-365zM1380 1309l363 -363q76 76 76 181.5t-76 181t-181.5 75.5t-181.5 -75z" />
<glyph unicode="G" d="M29 -408l331 693q76 76 180 76q1 0 2 -1q105 0 181 -75.5t76 -181t-76 -181.5zM672 594l968 969q76 76 181.5 76t181.5 -76v2q76 -76 76 -181.5t-76 -181.5l-969 -969q-37 135 -131 230q-96 96 -231 131z" />
<glyph unicode="H" d="M31 1126q0 262 148.5 387t363.5 125h512q211 0 361.5 -131t150.5 -381v-256q0 -211 -150.5 -361.5t-361.5 -150.5q0 106 -75 181t-181 75h-256q-213 0 -362.5 127t-149.5 385zM543 100v256q0 70 12 127h244q53 0 90 -36.5t37 -90.5v-127h129q260 0 446.5 183.5 t192.5 443.5q170 -33 277.5 -155.5t107.5 -344.5q0 -258 -149.5 -385t-362.5 -127h-256q-106 0 -181 -74.5t-75 -181.5q-211 0 -361.5 150.5t-150.5 361.5z" />
<glyph unicode="I" d="M31 614.5q0 278.5 137 514t372.5 372.5t514 137t514 -137t373 -372.5t137.5 -514t-137.5 -514t-373 -373t-514 -137.5t-514 137.5t-372.5 373t-137 514zM541 483h385v-383h256v385h385l-4 252h-383v385h-256v-383h-383v-256z" />
<glyph unicode="J" d="M31 614.5q0 278.5 137 514t372.5 372.5t514 137t514 -137t373 -372.5t137.5 -514t-137.5 -514t-373 -373t-514 -137.5t-514 137.5t-372.5 373t-137 514zM543 485h1024v256h-1024v-256z" />
<glyph unicode="K" horiz-adv-x="1853" d="M31 102h256v-512h-256v512zM543 -410v1024h256v-1024h-256zM1055 -410v1536h256v-1536h-256zM1567 -410v2048h256v-2048h-256z" />
<glyph unicode="L" d="M33 -154v1536q0 106 74.5 181t181.5 75h1534v-256h258l-258 -258l256 -256h-256v-1278h-1534q-106 0 -181 75t-75 181zM543 -154h1024h-2v1536h-1022v-1536zM799 868v258h512v-258h-512z" />
<glyph unicode="M" d="M47 803l-2 -2h729l-639 -639q-108 219 -108 446q0 93 20 195zM84 936q113 332 389 522l524 -522h-913zM205 41l524 524v-917q-334 111 -524 393zM598 1530q219 108 449 108h4q88 0 190 -20v-733zM862 338l639 -639q-221 -109 -450 -109q-86 0 -189 21v727zM1102 289h917 q-111 -334 -393 -525zM1331 426l639 639v-2q109 -221 109 -451q0 -84 -21 -186h-727zM1378 662v917q334 -111 525 -393z" />
<glyph unicode="N" horiz-adv-x="1085" d="M33 102v1409q0 53 36.5 90t90.5 37h768l2 -2q53 0 90 -36.5t37 -90.5v-1407q0 -213 -149.5 -362.5t-362.5 -149.5t-362.5 149.5t-149.5 362.5zM293 612h129q0 53 37 90t90 37t90 -36.5t37 -90.5h125l4 768h-512v-768zM295 417.5q0 -24.5 18.5 -43t43 -18.5t43 18.5 t18.5 43t-18.5 43t-43 18.5t-43 -18.5t-18.5 -43zM545 1062.5q0 61.5 61.5 61.5t61.5 -61.5t-61.5 -61.5t-61.5 61.5zM547 227.5q0 -53.5 37 -90.5t90 -37t90 37t37 90.5t-37 90t-90 36.5t-90 -36.5t-37 -90z" />
<glyph unicode="O" d="M31 102v768l768 768v-1536h-768zM1311 102v768l768 768v-1536h-768z" />
<glyph unicode="P" d="M31 102v1536h768v-768zM1311 102v1536h768v-768z" />
<glyph unicode="Q" d="M31 614.5q0 278.5 137 514t372.5 372.5t514 137t514 -137t373 -372.5t137.5 -514t-137.5 -514t-373 -373t-514 -137.5t-514 137.5t-372.5 373t-137 514zM543 612l510 -510v383h514v256h-514v385z" />
<glyph unicode="R" d="M31 614.5q0 278.5 137 514t372.5 372.5t514 137t514 -137t373 -372.5t137.5 -514t-137.5 -514t-373 -373t-514 -137.5t-514 137.5t-372.5 373t-137 514zM543 616h383v-514h256v514h385l-514 510z" />
<glyph unicode="S" d="M31 614.5q0 278.5 137 514t372.5 372.5t514 137t514 -137t373 -372.5t137.5 -514t-137.5 -514t-373 -373t-514 -137.5t-514 137.5t-372.5 373t-137 514zM543 485h514v-383l510 512l-510 510v-383h-514v-256z" />
<glyph unicode="T" d="M31 614.5q0 278.5 137 514t372.5 372.5t514 137t514 -137t373 -372.5t137.5 -514t-137.5 -514t-373 -373t-514 -137.5t-514 137.5t-372.5 373t-137 514zM543 612l512 -510l510 510h-383v514h-256v-514h-383z" />
<glyph unicode="U" d="M31 614.5q0 278.5 137 514t372.5 372.5t514 137t514 -137t373 -372.5t137.5 -514t-137.5 -514t-373 -373t-514 -137.5t-514 137.5t-372.5 373t-137 514zM414 612l256 -256v129h1024v256h-1024v129z" />
<glyph unicode="V" d="M31 614.5q0 278.5 137 514t372.5 372.5t514 137t514 -137t373 -372.5t137.5 -514t-137.5 -514t-373 -373t-514 -137.5t-514 137.5t-372.5 373t-137 514zM799 229l254 -256l256 256h-127v1024h-256v-1024h-127z" />
<glyph unicode="W" d="M31 614.5q0 278.5 137 514t372.5 372.5t514 137t514 -137t373 -372.5t137.5 -514t-137.5 -514t-373 -373t-514 -137.5t-514 137.5t-372.5 373t-137 514zM414 485h1024v-127l256 254l-256 256v-127h-1024v-256z" />
<glyph unicode="X" d="M31 614.5q0 278.5 137 514t372.5 372.5t514 137t514 -137t373 -372.5t137.5 -514t-137.5 -514t-373 -373t-514 -137.5t-514 137.5t-372.5 373t-137 514zM797 997h129v-1024h256v1024h129l-258 256z" />
<glyph unicode="Y" d="M29 -319q156 90 249 247.5t93 343.5q0 141 100 241.5t241.5 100.5t242 -100.5t100.5 -241.5l-2 -2q0 -283 -200 -482.5t-482 -199.5q-184 0 -342 90v3zM909 831l729 730q76 76 180 76q1 0 2 -1q105 0 181 -75.5t76 -181t-76 -181.5l-729 -729q-45 127 -140.5 222 t-222.5 140z" />
<glyph unicode="Z" d="M31 -340q117 68 186.5 185.5t69.5 256.5q0 106 74.5 181t181 75t181.5 -75t75 -181l-2 2q0 -211 -150.5 -361.5t-361.5 -150.5q-135 0 -254 68zM670 596l968 969q76 76 180 76l2 -1q106 0 181.5 -75.5t75.5 -181t-76 -181.5l-969 -969q-35 131 -132 229.5t-230 133.5z " />
<glyph unicode="[" d="M31 -158v465l956 959l-190 190l180 180l190 -190l37 37q150 150 363 149.5t362 -149.5q152 -150 152 -360.5t-152 -360.5l-37 -41l185 -184l-181 -181l-184 185l-954 -955h-475zM344 252q145 -4 244 -102q108 -109 104 -267l840 836l-361 360z" />
<glyph unicode="\" d="M31 102v256l1024 -256l1024 256v-256l-1024 -256zM31 614v256l1024 -256l1024 256v-256l-1024 -256zM31 1126v256l1024 256l1024 -256v-256l-1024 -256z" />
<glyph unicode="]" d="M31 102l1024 -256l1024 256v-256l-1024 -256l-1024 256v256zM31 358v256l1024 -256l1024 256v-256l-1024 -256zM31 870v256l1024 -256l1024 256v-256l-1024 -256zM31 1382v256l1024 -256l1024 256v-256l-1024 -256z" />
<glyph unicode="^" d="M31 614.5q0 278.5 137 514t372.5 372.5t514 137t514 -137t373 -372.5t137.5 -514t-137.5 -514t-373 -373t-514 -137.5t-514 137.5t-372.5 373t-137 514zM287 614.5q0 -317.5 225 -543t542.5 -225.5t543 225.5t225.5 543t-225.5 542.5t-543 225t-542.5 -225t-225 -542.5z M543 102l329 557q-28 -106 48 -182v2q78 -78 188 -47zM1010 797l557 329l-330 -565q31 111 -47 189h2q-76 76 -182 47z" />
<glyph unicode="_" horiz-adv-x="1085" d="M31 1126q0 512 512 512t512 -512t-512 -512t-512 512zM287 406q131 -48 256 -48t256 48v-816l-256 256l-256 -256v816z" />
<glyph unicode="`" horiz-adv-x="1085" d="M29 100v1409q0 53 37.5 91t91.5 38h768l-2 -2q53 0 91 -37.5t38 -91.5v-1407q0 -211 -149.5 -361.5t-362.5 -150.5t-362.5 150.5t-149.5 361.5zM281 612h129q0 53 37.5 91t91 38t91.5 -37.5t40 -91.5h125l-2 768h-512v-768zM539 229.5q0 -53.5 37.5 -91.5t91 -38t91.5 38 t38 91.5t-38 91t-91.5 37.5t-91 -37.5t-37.5 -91z" />
<glyph unicode="a" d="M31 614.5q0 278.5 137 514t372.5 372.5t514 137t514 -137t373 -372.5t137.5 -514t-137.5 -514t-373 -373t-514 -137.5t-514 137.5t-372.5 373t-137 514zM287 610q0 -283 182 -494.5t457 -258.5q-4 313 -190.5 534t-448.5 221v-2zM334 870h1442q-82 227 -279 369.5 t-442.5 142.5t-442 -142t-278.5 -370zM926 614.5q0 -53.5 37.5 -91.5t91 -38t91.5 38t38 91.5t-38 91t-91.5 37.5t-91 -37.5t-37.5 -91zM1184 -143q274 47 456.5 259t182.5 494q-262 0 -448.5 -221t-190.5 -534v2z" />
<glyph unicode="b" d="M31 881q10 16 27.5 42.5t76 105.5t121.5 150.5t158.5 159.5t190.5 150.5t215 105.5t235 43q158 0 321.5 -77.5t284.5 -189t219 -223.5t149 -190l50 -77l-27 -44q-18 -28 -76.5 -109t-122 -154.5t-159 -164t-190.5 -155t-215 -108.5t-234.5 -44t-233.5 43t-217 112 t-189 152t-160 165.5t-120 151.5t-78 112zM543 870q0 -211 150.5 -361.5t361.5 -150.5t361.5 150.5t150.5 361.5t-150.5 361.5t-361.5 150.5t-361.5 -150.5t-150.5 -361.5zM799 868q0 256 256 256t256 -256t-256 -256t-256 256z" />
<glyph unicode="c" d="M61 864h740l-535 -907q-239 288 -239 650q0 118 34 257zM104 993q84 209 251 361.5t384 224.5l346 -586h-981zM356 -141l369 624l520 -878q-106 -20 -196 -21q-395 0 -693 275zM868 1620q111 18 187 18q399 0 696 -276l-365 -619zM1028 225h971q-84 -207 -249 -359.5 t-378 -223.5zM1309 358l530 902q240 -287 240 -648q0 -115 -35 -254h-735z" />
<glyph unicode="d" d="M31 -154v1536l256 256v-1792h1792l-256 -256h-1536h-256v256zM543 102v512l256 256l256 -256l512 512l512 -512v-512h-1536z" />
<glyph unicode="e" d="M268 1036l641 -639l-641 -641q-240 275 -240 638q0 365 240 642zM319 1350q324 264 734 288v-1024zM645 -229l664 663v938v2q328 -47 548 -297t220 -585q0 -373 -264.5 -637.5t-636.5 -264.5q-287 0 -531 181z" />
<glyph unicode="f" horiz-adv-x="1980" d="M29 397q0 385 254 676l678 -678l-678 -676q-254 293 -254 678zM229 1311q367 297 826 327v-1151zM518 -231l664 663v948h2q330 -49 549 -299t219 -585q0 -375 -265.5 -640.5t-639.5 -265.5q-283 0 -529 179z" />
<glyph unicode="g" d="M35 485h260q41 -244 217 -420t420 -217l-4 -256q-350 45 -599 294t-294 599zM37 743q45 350 294 599t599 294v-260q-244 -41 -420 -217t-217 -420zM555 485h371v-370q-137 35 -236.5 134t-134.5 236zM555 745q35 137 134 236.5t237 134.5v-371h-371zM1184 115v370h370 q-35 -137 -134 -236t-236 -134zM1184 743v371q137 -35 236.5 -134t133.5 -237h-370zM1186 -150q244 41 420 217t217 420l258 -4q-45 -350 -294 -599t-601 -294v260zM1186 1378l2 256q352 -45 601 -293.5t294 -599.5h-260q-41 244 -217 420t-420 217z" />
<glyph unicode="h" d="M31 788v850h850l1198 -1198h-850v-850zM254 1171.5q0 -102.5 71.5 -173t172 -70.5t172 70.5t71.5 173t-71.5 173t-172 70.5t-172 -70.5t-71.5 -173z" />
<glyph unicode="i" d="M31 -154q0 256 256 256t256 -256t-256 -256t-256 256zM414 870l2 254q236 0 446 -92q213 -92 366.5 -245.5t246.5 -366.5q92 -211 92 -447h-256q0 180 -72 348t-190.5 287t-286.5 190.5t-348 71.5zM414 1638q340 0 645 -131t530.5 -356t356.5 -530.5t131 -645.5h-256 q0 286 -111 547q-111 260 -299 448.5t-448 299.5q-261 110 -547 110zM416 358v256q264 0 452.5 -188t188.5 -453h-256q0 160 -112.5 272.5t-272.5 112.5z" />
<glyph unicode="j" d="M31 1346v292q416 0 794.5 -162.5t653 -437t437.5 -653.5t163 -795h-291q0 356 -139.5 682t-375 560.5t-561 374t-681.5 139.5zM33 -119q121 0 207 -86t86 -207h-293v293zM33 174v293q362 0 619 -257.5t257 -619.5l-291 -2q0 244 -172 415t-413 171zM33 760v293 q297 0 568 -116t467 -311.5t311.5 -467t115.5 -568.5h-293q0 317 -156.5 586.5t-426 426.5t-586.5 157z" />
<glyph unicode="k" d="M25 737.5q0 53.5 37.5 91t91.5 37.5q45 0 78.5 -28.5t43.5 -71.5l310 -102q51 92 141 148t199 56q123 0 223 -71l457 456q-39 68 -39 127q0 106 74.5 181t181 75t181.5 -74.5t75 -181t-75 -181.5t-181 -75q-61 0 -129 39l-457 -456q72 -100 72 -222q0 -84 -39 -166 l391 -278q76 61 162 61l-4 -6q106 0 181 -74.5t75 -181t-75 -181.5t-181.5 -75t-181 75t-74.5 181q0 41 18 92l-387 277q-113 -113 -270.5 -113t-270 113t-112.5 272q0 20 4 58l-307 102q-37 -33 -84 -33q-53 0 -91 38t-38 91.5z" />
<glyph unicode="l" d="M31 614v768h256v-340l358 359q238 238 594 238t594 -238q246 -246 246 -594q0 -346 -246 -596l-193 -193l-180 181l193 192q172 172 172 414t-172 414q-166 166 -413 166l-1 -1q-248 0 -414 -165l-348 -349h322v-256h-768zM1030 -227l180 180l181 -180l-181 -181z" />
<glyph unicode="m" horiz-adv-x="1816" d="M27 462.5q0 364.5 257 621.5t621 257h174l-86 86l207 207l440 -438l-440 -440l-207 207l86 86l-172 2q-242 0 -413.5 -171t-171.5 -413t172 -413t413 -171q244 0 415 171t171 415l291 -6q0 -365 -257 -622t-621.5 -257t-621.5 257t-257 621.5z" />
<glyph unicode="n" horiz-adv-x="1816" d="M29 466.5q0 364.5 257 622t621 257.5h295v292l440 -438l-440 -440v291l-295 4q-244 0 -414.5 -171t-170.5 -415t171 -415t414.5 -171t414.5 171t171 415l293 -2q0 -365 -257 -622t-621.5 -257t-621.5 257t-257 621.5z" />
<glyph unicode="o" d="M29 1247h256v4q0 158 112.5 270.5t270.5 112.5h768l-2 -2q158 0 270.5 -112.5t112.5 -270.5v-127h-256v129q0 51 -37 89t-90 38h-768q-51 0 -89 -37.5t-38 -89.5v-4h256l-383 -381zM287 483v129h256v-127q0 -51 37.5 -89t89.5 -38h768q53 0 90 38t37 89h-256l385 385 l383 -387h-256q0 -158 -113 -270.5t-270 -112.5h-768q-158 0 -270.5 113t-112.5 270z" />
<glyph unicode="p" d="M31 1118h256v129q0 158 112.5 270.5t270.5 112.5h768q158 0 270.5 -112.5t112.5 -270.5v-127h-256v129q0 53 -37 90t-90 37h-768q-51 0 -89 -36.5t-38 -90.5v-127h260l-385 -516zM289 227v129h256v-127q0 -53 36.5 -90t90.5 -37h768q51 0 89 37t38 90v129h-260l385 508 l387 -512h-256v-127q0 -158 -113 -270.5t-270 -112.5h-768q-158 0 -270.5 113t-112.5 270z" />
<glyph unicode="q" d="M29 862v129q0 160 112.5 272.5t270.5 112.5h897v256l512 -383l-512 -383v256h-895q-53 0 -90 -38t-37 -91l-2 -131h-256zM287 485l512 385v-256h897q53 0 90 37t37 90v129l256 -4v-127q0 -158 -113 -270.5t-270 -112.5h-897v-256z" />
<glyph unicode="r" d="M29 991q0 160 112.5 272.5t270.5 112.5h1153v256l512 -383l-512 -383v256h-1151l-2 -4q-51 0 -89 -37t-38 -90h-256zM31 485l512 385v-256h1153q53 0 90 37t37 90l256 -2q0 -158 -113 -270.5t-270 -112.5h-1153v-256z" />
<glyph unicode="s" horiz-adv-x="1853" d="M31 610q0 371 262 633t633 262v129l256 -256l-256 -258v129q-264 0 -451.5 -187.5t-187.5 -451.5q0 -266 188 -454l-180 -181q-264 264 -264 635zM672 -156l256 256v-127q264 0 451.5 187.5t187.5 451.5q0 266 -189 455l181 182v-4q264 -264 264 -634.5t-262.5 -633 t-632.5 -262.5v-127z" />
<glyph unicode="t" d="M31 610q0 279 137 514.5t372.5 372.5t514.5 137l129 -127l-127 -127q-317 0 -542.5 -225t-225.5 -542.5t225 -542.5l-158 -21l-24 -160v-4q-145 143 -223 330.5t-78 394.5zM926 -285l129 129q317 0 542.5 225.5t225.5 543t-226 542.5l158 21l23 159q145 -143 223 -330.5 t78 -394.5q0 -279 -137.5 -514t-372.5 -372.5t-514 -137.5z" />
<glyph unicode="u" d="M29 1253l385 385v-256h385v-256l-387 -2v-256zM1307 1124v256l381 -2v256l385 -383l-383 -383v256h-383z" />
<glyph unicode="v" d="M27 1251l385 385v-256h385l-127 -127l123 -131h-383v-256zM1300 1374h386v256l385 -383l-383 -383v256h-383l125 129z" />
<glyph unicode="w" d="M31 614.5q0 278.5 137 514t372.5 372.5t514 137t514 -137t373 -372.5t137.5 -514t-137.5 -514t-373 -373t-514 -137.5t-514 137.5t-372.5 373t-137 514zM414 612l256 -256v129l768 -4v-127l256 256l-256 256v-127h-768v129z" />
<glyph unicode="x" horiz-adv-x="829" d="M27 1247l385 385l385 -383h-256v-383h-256l-2 381h-256zM31 -27h256v385h256l-2 -387h256l-383 -383z" />
<glyph unicode="y" horiz-adv-x="829" d="M23 1245l385 385l385 -383h-256v-383l-127 125l-131 -129v385h-256zM29 -29h256v385l129 -127l125 123v-383h256l-383 -383z" />
<glyph unicode="z" d="M31 614.5q0 278.5 137 514t372.5 372.5t514 137t514 -137t373 -372.5t137.5 -514t-137.5 -514t-373 -373t-514 -137.5t-514 137.5t-372.5 373t-137 514zM795 997h129v-768h-127l256 -256l256 256h-127l-4 768h129l-256 256z" />
<glyph unicode="{" d="M23 606l385 385v-256h385v-256l-387 -2v-256zM666 1247l385 385l385 -383h-256v-383h-256l-2 381h-256zM670 -27h256v385h256l-2 -387h256l-383 -383zM1300 477v256l381 -2v256l385 -383l-383 -383v256h-383z" />
<glyph unicode="|" d="M20 602l386 385v-256h385l-127 -127l122 -131h-383v-256zM664 1245l385 385l385 -383h-256v-383l-127 125l-131 -129v385h-256zM670 -29h256v385l129 -127l125 123v-383h256l-383 -383zM1294 725h385v256l385 -383l-383 -383v256h-383l125 129z" />
<glyph unicode="}" d="M31 614.5q0 278.5 137 514t372.5 372.5t514 137t514 -137t373 -372.5t137.5 -514t-137.5 -514t-373 -373t-514 -137.5t-514 137.5t-372.5 373t-137 514zM412 612l256 -256v129h256v-256h-127l256 -256l256 256h-127v256h256v-127l252 252l-256 256v-127h-256v256h129 l-256 256l-256 -256h129v-256h-256v129z" />
<glyph unicode="~" d="M31 485l512 385v-256h1536v-256l-1536 -2v-256zM31 1124v258h1536v256l512 -385l-512 -385v256h-1536z" />
<glyph unicode="&#xa2;" d="M31 868q0 213 150.5 362.5t361.5 149.5l67 -6q68 119 186.5 190.5t258.5 71.5q137 0 256 -70.5t186 -191.5q45 8 70 8l-2 -6q213 0 362.5 -149.5t149.5 -362.5t-149.5 -362.5t-362.5 -149.5h-383v-383h256l-385 -383l-383 385h256v385h-383q-211 0 -361.5 149.5 t-150.5 362.5zM285 864q0 -106 74.5 -181t181.5 -75h1024l-4 2q106 0 181 75t75 181.5t-75 181t-181.5 74.5t-181 -74.5t-74.5 -181.5h-256q0 121 55 228.5t149 179.5q-78 104 -202 104q-106 0 -181 -74.5t-75 -181.5q0 -45 16 -90l-240 -90q-31 82 -30 174 q-100 -4 -178 -76.5t-78 -175.5z" />
<glyph unicode="&#xa3;" d="M31 870q0 211 150.5 361.5t361.5 150.5l67 -6q68 119 186.5 190.5t258.5 71.5q137 0 256 -70.5t186 -191.5q68 6 70 6q211 0 361.5 -150.5t150.5 -361.5t-150.5 -361.5t-361.5 -150.5h-1024q-211 0 -361.5 150.5t-150.5 361.5zM287 870q0 -106 74.5 -181t181.5 -75h1024 l-4 2q106 0 181 75t75 181.5t-75 181t-181.5 74.5t-181 -74.5t-74.5 -181.5h-256q0 121 55 228.5t149 179.5q-78 104 -202 104q-106 0 -181 -74.5t-75 -181.5q0 -45 16 -90l-240 -90q-31 84 -30 176q-100 -4 -178 -77.5t-78 -176.5zM668 -27l385 385l383 -383h-256v-387 h-256v385h-256z" />
<glyph unicode="&#xa5;" horiz-adv-x="1597" d="M31 -410v2048l1536 -1024z" />
<glyph unicode="&#xa9;" d="M31 102h2046v-512h-2046v512zM31 358l1024 1280l1024 -1280h-2048z" />
<glyph unicode="&#xad;" d="M31 614q0 279 137 514.5t372.5 372.5t514.5 137v-2q279 0 514 -137t372.5 -372.5t137.5 -514.5h-256q0 39 -29 68t-67.5 29t-67.5 -29t-29 -68h-256q0 39 -27.5 68t-68.5 29t-68.5 -29t-27.5 -68v-639q0 -158 -113 -270.5t-270.5 -112.5t-270 113t-112.5 270h256 q0 -51 36.5 -89t90 -38t91.5 37t38 90v641q0 41 -28 69t-68.5 28t-68.5 -28t-28 -69h-256q0 41 -28.5 69t-67.5 28t-67.5 -28t-28.5 -69h-256z" />
<glyph unicode="&#xae;" d="M29 358h768v-768l-293 293l-293 -293l-180 181l291 295zM29 868l295 295l-291 291l180 180l291 -291l293 293v-768h-768zM1309 356h768l-293 -293l293 -292l-181 -181l-292 293l-295 -295v768zM1309 870l2 766l293 -293l290 291l181 -180l-291 -291l293 -293h-768z" />
<glyph unicode="&#xb4;" d="M31 1509q0 129 129 129t129 -129t-129 -129t-129 129zM543 -31q0 129 129 129t129 -129t-129 -129t-129 129zM543 995q0 129 129 129t129 -129t-129 -129t-129 129zM543 1380v256h1536v-256h-1536zM1055 96h1024v-256h-1024v256zM1055 479q0 129 129 129t129 -129 t-129 -129t-129 129zM1055 866v256h1024v-256h-1024zM1567 350v256h512v-256h-512z" />
<glyph unicode="&#x2000;" horiz-adv-x="821" />
<glyph unicode="&#x2001;" horiz-adv-x="1642" />
<glyph unicode="&#x2002;" horiz-adv-x="821" />
<glyph unicode="&#x2003;" horiz-adv-x="1642" />
<glyph unicode="&#x2004;" horiz-adv-x="547" />
<glyph unicode="&#x2005;" horiz-adv-x="410" />
<glyph unicode="&#x2006;" horiz-adv-x="273" />
<glyph unicode="&#x2007;" horiz-adv-x="273" />
<glyph unicode="&#x2008;" horiz-adv-x="205" />
<glyph unicode="&#x2009;" horiz-adv-x="328" />
<glyph unicode="&#x200a;" horiz-adv-x="91" />
<glyph unicode="&#x2010;" d="M31 614q0 279 137 514.5t372.5 372.5t514.5 137v-2q279 0 514 -137t372.5 -372.5t137.5 -514.5h-256q0 39 -29 68t-67.5 29t-67.5 -29t-29 -68h-256q0 39 -27.5 68t-68.5 29t-68.5 -29t-27.5 -68v-639q0 -158 -113 -270.5t-270.5 -112.5t-270 113t-112.5 270h256 q0 -51 36.5 -89t90 -38t91.5 37t38 90v641q0 41 -28 69t-68.5 28t-68.5 -28t-28 -69h-256q0 41 -28.5 69t-67.5 28t-67.5 -28t-28.5 -69h-256z" />
<glyph unicode="&#x2011;" d="M31 614q0 279 137 514.5t372.5 372.5t514.5 137v-2q279 0 514 -137t372.5 -372.5t137.5 -514.5h-256q0 39 -29 68t-67.5 29t-67.5 -29t-29 -68h-256q0 39 -27.5 68t-68.5 29t-68.5 -29t-27.5 -68v-639q0 -158 -113 -270.5t-270.5 -112.5t-270 113t-112.5 270h256 q0 -51 36.5 -89t90 -38t91.5 37t38 90v641q0 41 -28 69t-68.5 28t-68.5 -28t-28 -69h-256q0 41 -28.5 69t-67.5 28t-67.5 -28t-28.5 -69h-256z" />
<glyph unicode="&#x2012;" d="M31 614q0 279 137 514.5t372.5 372.5t514.5 137v-2q279 0 514 -137t372.5 -372.5t137.5 -514.5h-256q0 39 -29 68t-67.5 29t-67.5 -29t-29 -68h-256q0 39 -27.5 68t-68.5 29t-68.5 -29t-27.5 -68v-639q0 -158 -113 -270.5t-270.5 -112.5t-270 113t-112.5 270h256 q0 -51 36.5 -89t90 -38t91.5 37t38 90v641q0 41 -28 69t-68.5 28t-68.5 -28t-28 -69h-256q0 41 -28.5 69t-67.5 28t-67.5 -28t-28.5 -69h-256z" />
<glyph unicode="&#x2013;" horiz-adv-x="1024" d="M31 -410v2048h963v-2048h-963z" />
<glyph unicode="&#x2014;" horiz-adv-x="2048" d="M31 -410v2048h1987v-2048h-1987z" />
<glyph unicode="&#x2018;" horiz-adv-x="1085" d="M29 100v1409q0 53 37.5 91t91.5 38h768l-2 -2q53 0 91 -37.5t38 -91.5v-1407q0 -211 -149.5 -361.5t-362.5 -150.5t-362.5 150.5t-149.5 361.5zM281 612h129q0 53 37.5 91t91 38t91.5 -37.5t40 -91.5h125l-2 768h-512v-768zM539 229.5q0 -53.5 37.5 -91.5t91 -38t91.5 38 t38 91.5t-38 91t-91.5 37.5t-91 -37.5t-37.5 -91z" />
<glyph unicode="&#x2019;" d="M31 614l1022 1020l1024 -1022l-363 -362l-403 405v-1067h-514v1067l-404 -403z" />
<glyph unicode="&#x201c;" d="M31 1126v512h2048v-512h-2048z" />
<glyph unicode="&#x201d;" d="M31 1126v512h2048v-512h-2048z" />
<glyph unicode="&#x2026;" horiz-adv-x="6327" d="M4249 870h768l256 768l256 -768h768l-631 -487l248 -793l-639 492l-641 -492l248 795zM2140 870h768l256 768l256 -768h768l-631 -487l248 -793l-639 492l-641 -492l248 795zM31 870h768l256 768l256 -768h768l-631 -487l248 -793l-639 492l-641 -492l248 795z" />
<glyph unicode="&#x202f;" horiz-adv-x="328" />
<glyph unicode="&#x205f;" horiz-adv-x="410" />
<glyph unicode="&#x2122;" horiz-adv-x="4218" d="M2156 803l-2 -2h729l-639 -639q-108 219 -108 446q0 93 20 195zM2193 936q113 332 389 522l524 -522h-913zM2314 41l524 524v-917q-334 111 -524 393zM2707 1530q219 108 449 108h4q88 0 190 -20v-733zM2971 338l639 -639q-221 -109 -450 -109q-86 0 -189 21v727z M3211 289h917q-111 -334 -393 -525zM3440 426l639 639v-2q109 -221 109 -451q0 -84 -21 -186h-727zM3487 662v917q334 -111 525 -393zM31 614.5q0 278.5 137 514t372.5 372.5t514 137t514 -137t373 -372.5t137.5 -514t-137.5 -514t-373 -373t-514 -137.5t-514 137.5 t-372.5 373t-137 514zM543 612l512 -510l510 510h-383v514h-256v-514h-383z" />
<glyph unicode="&#xe000;" horiz-adv-x="1630" d="M0 1630h1630v-1630h-1630v1630z" />
</font>
</defs>
</svg>
