<?xml version="1.0" standalone="no"?>
<!DOCTYPE svg PUBLIC "-//W3C//DTD SVG 1.1//EN" "http://www.w3.org/Graphics/SVG/1.1/DTD/svg11.dtd" >
<svg xmlns="http://www.w3.org/2000/svg">
<metadata>
This is a custom SVG webfont generated by Font Squirrel.
Copyright   : Generated in 2009 by FontLab Studio Copyright info pending
Designer    : Sinisa Komlenic
Foundry     : Sinisa Komlenic
Foundry URL : httpwwwsinisakomleniccom
</metadata>
<defs>
<font id="webfontUl9Zwx6E" horiz-adv-x="1204" >
<font-face units-per-em="2048" ascent="1536" descent="-512" />
<missing-glyph horiz-adv-x="1024" />
<glyph unicode=" "  horiz-adv-x="1024" />
<glyph unicode="&#x09;" horiz-adv-x="1024" />
<glyph unicode="&#xa0;" horiz-adv-x="1024" />
<glyph unicode="!" horiz-adv-x="591" d="M0 299q0 94 47 164q43 68 109 102h-101l-35 979h549l-32 -979h-101q55 -31 94 -82q31 -39 41 -75q18 -47 19 -109q0 -68 -23 -121q-25 -59 -78 -106q-31 -29 -75 -49q-61 -23 -119 -23q-49 0 -90 14q-41 12 -82 39q-74 51 -103 137q-20 50 -20 109zM182 260l31 12z" />
<glyph unicode="&#x22;" horiz-adv-x="1107" d="M4 1020l78 219l16 51q6 18 19 64q18 84 26 127l17 112l112 13l326 32l-57 -206q-37 -133 -88 -246q-4 -8 -16.5 -30.5t-18.5 -35.5l-37 -63l-76 -8l-69 -7zM516 1020l78 219l16 51q6 18 19 64q18 84 26 127l17 112l112 13l326 32l-57 -206q-37 -133 -88 -246 q-4 -8 -16.5 -30.5t-18.5 -35.5l-37 -63l-76 -8l-69 -7z" />
<glyph unicode="&#x26;" horiz-adv-x="1613" d="M0 494q0 131 57 241q39 74 105 144q-35 86 -35 182q0 104 39 190q41 98 121 166q47 47 121 78q98 41 202 41q96 0 187 -39q84 -33 155 -111q43 -49 68 -110q37 -84 37 -176q0 -41 -10 -92h313l-39 -232q-27 -154 -70 -272q-12 -37 -37 -86l80 -86l310 -332h-709l-51 49 l-2 -2l-418 549l393 -561l-29 -10q-2 0 -4 -1t-4 -1l-409 534l383 -545q-33 -10 -39 -10l-398 516l369 -524q-82 -14 -141 -14h-2q-84 0 -164 22q-84 25 -148 66q-133 82 -192 229q-39 93 -39 197z" />
<glyph unicode="'" horiz-adv-x="602" d="M4 1020l78 219l16 51q6 18 19 64q18 84 26 127l17 112l112 13l326 32l-57 -206q-37 -133 -88 -246q-4 -8 -16.5 -30.5t-18.5 -35.5l-37 -63l-76 -8l-69 -7z" />
<glyph unicode="(" horiz-adv-x="843" d="M2 776q0 223 72 414q49 139 151 276l56 74h559l-222 -297q-68 -90 -100 -192q-41 -127 -41 -275q0 -143 41 -270q37 -102 103 -199l208 -293h-548l-56 74q-100 131 -151 274q-72 191 -72 414z" />
<glyph unicode=")" horiz-adv-x="829" d="M-2 1540h551l55 -72q98 -125 156 -276q70 -186 69 -414q0 -225 -69 -411q-53 -143 -154 -279l-55 -74h-549l211 293q66 92 100 199q43 123 43 274q0 143 -41 271q-35 100 -102 194z" />
<glyph unicode="+" horiz-adv-x="878" d="M0 586v362h254v266h369v-266h254v-362h-254v-267h-369v267h-254z" />
<glyph unicode="," horiz-adv-x="602" d="M4 -252l78 219q2 4 16 51q6 18 19 64q18 84 26 127l17 113l112 12l326 33l-57 -207q-37 -133 -88 -246q-4 -8 -16.5 -30.5t-18.5 -35.5l-37 -63l-76 -8l-69 -6z" />
<glyph unicode="-" horiz-adv-x="575" d="M0 588v366h573v-366h-573z" />
<glyph unicode="." horiz-adv-x="428" d="M-2 215q0 66 33 119q37 59 98 84q43 16 84 16q70 0 123 -39q57 -41 76 -100q14 -37 14 -80q0 -49 -16 -88q-18 -45 -56 -78q-31 -25 -57 -35q-39 -16 -86 -16h-2q-72 0 -123 39q-53 37 -76 100q-12 37 -12 78zM137 190l10 5zM166 276l4 -4zM182 145l2 5z" />
<glyph unicode="/" horiz-adv-x="1026" d="M8 6l588 1528h432l-590 -1528h-430z" />
<glyph unicode="0" horiz-adv-x="1212" d="M0 760v2q0 147 35 282q31 135 106 244q51 76 121 131q90 76 215 109q25 4 35 6l25 -907q10 717 12 913q4 0 14 1t17 1l22 -915q10 725 14 915h29l25 -915q10 715 12 913q90 -12 162 -45q111 -51 186 -139q45 -49 84 -125q45 -88 68 -184q29 -121 28 -273q0 -139 -22 -246 q-20 -117 -74 -221q-37 -72 -88 -131q-74 -84 -172 -133q-57 -29 -117 -41q-63 -16 -139 -16h-2q-119 0 -223 49q-104 45 -185 137q-51 57 -84 123q-43 80 -69 184q-31 123 -35 281z" />
<glyph unicode="1" horiz-adv-x="915" d="M-2 1280l188 100l275 146h452v-135l-378 -371l378 342v-64l-331 -325l331 299v-68l-286 -280l286 258v-1180h-671v674l-80 -43l-86 340z" />
<glyph unicode="2" d="M0 1245l156 133q92 76 200 117q127 47 254 47q100 0 203 -33q100 -35 176 -98q49 -43 86 -92q49 -68 74 -141q33 -96 33 -195q0 -86 -23 -170q-25 -82 -63 -151q0 -2 -2 -7h112v-655h-1171v461l604 588l-393 -353l-19 43l365 359l-375 -338l-18 45l348 342l-359 -324 l-61 142z" />
<glyph unicode="3" d="M-6 213l72 203l36 102l56 156l272 -152l-268 164l18 51l285 -157l-281 172l15 39v14l299 -166l-299 182l303 176l-303 -159v4l-19 47l289 166l-293 -154l-18 51l280 162l-284 -149l-15 43l-104 286l164 121q29 20 90 53q43 20 96 39q119 35 231 35q137 0 242 -45 q119 -47 195 -139q51 -57 80 -131q37 -92 36 -191q0 -61 -14 -116q-8 -43 -29 -86q33 -57 45 -89q35 -94 35 -192q0 -133 -57 -248q-59 -119 -170 -199q-68 -49 -158 -81q-115 -39 -243 -39q-78 0 -175 18q-78 18 -145 47q-43 16 -86 45z" />
<glyph unicode="4" horiz-adv-x="1259" d="M-2 283v57l408 399l-408 -368v61l362 356l-362 -327v254l567 811h557v-273v-335h138v-650h-138v-266h-669v266h-433l433 422z" />
<glyph unicode="5" d="M0 213l66 201l8 24q86 -23 178 -22.5t180 33.5q76 25 139 77q33 25 59.5 53.5t37.5 43.5l10 12l-10 -12q-12 -14 -39 -41t-60 -52q-63 -45 -141 -71q-76 -27 -174 -23q-78 0 -172 27l6 20l-25 -4l5 29q109 -27 186 -25q78 0 158 27q68 27 120 70q18 14 34 29.5t26 26.5 t18 21.5t13 14.5l2 4l-11 -12q-10 -12 -33.5 -36t-52.5 -44q-55 -41 -120 -62q-78 -23 -154 -20q-86 2 -182 35l6 38q86 -27 176 -26q139 0 238 84q25 18 44 39.5t27 32.5l8 12q-29 -39 -84 -80q-102 -76 -233 -68q-82 2 -174 35l127 932h979v-504l-467 -12l467 -8v-47 l-467 -13q231 -2 467 -6v-47l-467 -12q201 -4 416 -6q35 -63 49 -121q20 -70 20 -158q0 -98 -26 -184q-27 -82 -82 -164q-111 -152 -287 -215q-113 -43 -242 -43q-84 0 -166 16q-78 16 -141 43q-41 18 -84 45z" />
<glyph unicode="6" horiz-adv-x="1216" d="M0 676q0 195 66 356q59 158 178 277l2 2q90 90 219 149q111 51 248 72q66 10 135 10h272v-586q-127 43 -241 41q-96 0 -181 -30q-82 -31 -139 -78q-33 -27 -58.5 -54.5t-37.5 -41.5l-10 -15l10 13q12 14 38.5 40.5t59.5 51.5q61 49 141 71q80 29 175 25q133 -6 258 -59 q8 -14 24 -48q-154 61 -282 60q-82 0 -158 -29q-63 -25 -121 -67q-27 -23 -50.5 -47.5t-31.5 -38.5l-10 -13q33 45 96 92q55 41 121 62q68 25 154 20q133 -2 280 -73q10 -6 21 -11q6 -14 14 -43q-8 4 -24.5 11.5t-24.5 11.5q-145 59 -266 57q-141 0 -238 -82 q-25 -20 -44.5 -41.5t-27.5 -31.5l-8 -13q29 41 84 82q98 74 234 68q123 -6 251 -70q23 -10 74 -39q14 -63 15 -133q0 -129 -50 -250q-51 -123 -147 -213q-66 -63 -152 -102q-117 -53 -250 -53q-115 0 -217 39q-109 39 -188 114q-51 45 -94 109q-53 76 -82 174 q-37 111 -37 254zM598 578zM627 561l2 -10z" />
<glyph unicode="7" horiz-adv-x="1280" d="M4 2l426 870h-315v654h1161v-101l-440 -430l440 398v-60l-395 -387l395 357v-62l-348 -344l348 315v-106l-526 -1104h-746z" />
<glyph unicode="8" d="M-4 524q0 106 35 193q20 53 45 92q-12 29 -23 61q-20 68 -20 140q0 131 61 247q61 113 166 183q59 43 141 69q47 16 123 29l15 -502q2 256 6 504q16 2 47 2l12 -506l8 506h45l15 -506q2 256 6 504q94 -10 174 -45q117 -47 192 -139q51 -59 82 -131q39 -92 39 -195 q0 -82 -22 -151q-8 -27 -23 -58q35 -55 51 -104q31 -82 31 -174q0 -137 -67 -260q-63 -115 -172 -189q-63 -43 -150 -74q-70 -23 -131 -28l-16 616l-11 -620q-6 0 -19 -1t-22 -1l-16 622q-4 -346 -8 -622q-29 0 -41 2l-17 620q-6 -342 -10 -618q-98 10 -178 41 q-121 47 -207 137q-53 57 -94 137q-47 104 -47 219z" />
<glyph unicode="9" horiz-adv-x="1212" d="M0 924q0 129 49 250q51 123 148 212q66 63 151 103q117 53 250 53q115 0 217 -39q109 -39 189 -114q51 -45 94 -109q53 -76 82 -174q37 -111 37 -254q0 -195 -66 -356q-59 -158 -178 -277l-2 -2q-90 -90 -219 -149q-111 -51 -248 -72q-66 -10 -135 -10h-273v585 q127 -43 242 -41q96 0 180 31q82 31 139 78q33 27 58.5 54.5l38.5 41.5l10 15l-10 -13q-12 -14 -39 -40.5t-60 -51.5q-61 -49 -141 -72q-80 -29 -174 -24q-133 6 -258 59q-8 14 -25 47q154 -61 283 -59q82 0 158 29q63 25 120 67q27 23 50.5 47.5t31.5 38.5l11 13 q-33 -45 -97 -93q-55 -41 -120 -61q-68 -25 -154 -21q-133 2 -281 74q-10 6 -20 10q-6 14 -14 43q8 -4 24.5 -11t24.5 -11q145 -59 266 -57q141 0 238 81q25 20 44 42t27 32l8 12q-29 -41 -84 -81q-98 -74 -233 -68q-123 6 -252 70q-23 10 -74 39q-14 63 -14 133z" />
<glyph unicode=":" horiz-adv-x="432" d="M-2 524q0 66 35 119q31 53 90 80q-43 20 -68 49q-57 59 -57 150q0 66 33 118q33 55 98 84q35 16 84 17q41 0 66 -11q29 -8 59 -28q51 -37 76 -101q10 -33 14 -75v-2v-2q0 -45 -18 -88q-18 -45 -56 -78q-33 -25 -51 -33q4 -2 33 -18q53 -39 78 -101q10 -33 14 -76v-2v-2 q0 -45 -18 -88q-20 -49 -56 -78q-25 -23 -57 -34q-35 -16 -84 -17h-2q-51 0 -86 17q-39 18 -70 51q-57 59 -57 149zM133 918h12h-12zM137 498l13 4zM137 897l13 4zM158 868l4 6zM168 586l4 -4zM168 985l4 -6zM182 854v4v-4zM193 598l2 -6zM193 991v4v-4zM274 555l9 6z M274 954l9 4z" />
<glyph unicode=";" horiz-adv-x="595" d="M-4 158l82 221q2 4 5 13l6 19q3 9 5 17l19 64q18 84 26 126l17 113l59 6q-23 16 -41 35q-57 63 -57 150q0 66 33 118q37 57 96 84q43 16 86 17q53 0 96 -23q43 -20 76 -63q18 -25 28 -56q12 -41 13 -77q0 -49 -17 -88q-14 -35 -47 -68l113 10l-59 -209q-31 -113 -89 -243 l-16 -31l-18 -35l-37 -63l-76 -7l-68 -8zM256 899l10 4zM375 868l4 -6zM393 954l8 4z" />
<glyph unicode="?" horiz-adv-x="1026" d="M0 1374l147 80q43 20 86 37q41 14 91 25q88 20 192 20q127 0 227 -33q109 -39 177 -102q49 -49 71 -94q31 -61 31 -133q0 -59 -18 -111q-23 -55 -52 -92q-43 -61 -127 -133q-27 -27 -34 -39l-5 -17v-6l2 -2l11 -217h-127q39 -27 73 -70q27 -35 43 -77q18 -53 19 -109 q0 -63 -25 -121q-27 -66 -77 -106q-33 -31 -78 -49q-51 -23 -117 -23h-2q-47 0 -88 14q-41 12 -82 39q-74 51 -102 138q-20 49 -21 108q0 63 25 125q29 66 79 106q20 16 33 25h-139l-16 164l-2 31q-4 29 -5 41q0 14 5 43q51 51 94 84q106 82 192 75q14 0 27.5 -3t24 -6 t17.5 -6t11 -5l4 -2l-4 2q-4 2 -11 6t-16.5 7t-23.5 6t-29 5q-86 12 -202 -67q-45 -31 -78 -62q10 43 26 72q4 4 15.5 12.5t13.5 10.5q123 96 229 86q29 0 56.5 -8.5t39 -14.5t13.5 -8q-29 29 -109 37q-106 12 -239 -78q-6 -4 -18.5 -14.5t-18.5 -14.5l-16 35l14 13.5 t16 13.5q66 49 129 71q68 29 137 25q23 -2 44.5 -6t37 -9.5t26.5 -10.5t17 -9l9 -4l-9 4q-6 4 -17 9l-26 12q-14 6 -36.5 11t-45.5 7q-68 6 -141 -18q-63 -23 -135 -70q-16 -8 -29 -23l-82 164z" />
<glyph unicode="A" horiz-adv-x="1677" d="M0 0l469 1538h731l477 -1538h-968l200 883l-241 -883h-33l205 899l-248 -899h-33l209 918l-250 -918h-518z" />
<glyph unicode="B" horiz-adv-x="1298" d="M0 53v1413l248 50q55 12 153 18q80 6 172 6q117 0 213 -16q115 -20 209 -76q117 -66 185 -170q80 -121 80 -261v-13v-5q-162 96 -316 101q-28 1 -53.5 1t-48.5 -1q-47 -2 -95.5 -11.5t-86 -18.5t-71.5 -21.5t-56.5 -22.5t-38.5 -18l-17 -7l31 11q29 12 69.5 25.5 t101 27.5t124.5 17q21 1 44 1q45 0 95 -4q166 -16 315 -121q0 -12 -4 -40q-154 102 -317 110l-45 2q-40 0 -82 -5q-66 -7 -117 -21.5t-92 -30t-66.5 -26.5t-27.5 -11l29 10l66 24q38 13 94.5 25.5t113.5 15.5q19 1 39 1q41 0 86 -4q160 -14 311 -129q-8 -25 -10 -35 q-152 109 -305 112l-41 2q-36 0 -74 -5q-59 -7 -107.5 -20t-85 -26.5t-61 -25t-26.5 -11.5q2 0 27.5 10.5t61 21.5t87 22.5t104.5 14.5q18 1 36 1q37 0 77 -4q84 -8 165 -49t117.5 -72t49.5 -47q33 -94 32 -188q0 -133 -61 -250q-51 -104 -148 -183h-2q-104 -84 -256 -120 q-129 -29 -295 -29q-164 0 -268 16z" />
<glyph unicode="C" horiz-adv-x="1372" d="M-2 756v10q0 162 62 311q65 154 180 258q227 203 553 203q92 0 198 -18q106 -27 164 -56l215 -112l-143 -557q-55 -39 -144 -78q-59 -27 -122 -40q-39 -8 -83 -8q-27 0 -56 3q-75 8 -134 43q-96 47 -129 141q-17 49 -17 95q0 43 15 83q16 47 42 90t40 62.5t12 19.5 q2 0 -13 -19.5t-42 -61.5t-45 -89q-19 -50 -19 -104v-11q2 -60 40 -124t106 -101q61 -39 141 -50q40 -6 76.5 -5.5t70.5 5.5q67 11 130 38q59 23 139 68l6 -33q-63 -39 -131 -70q-66 -29 -137 -43q-44 -9 -94 -9q-32 0 -67 4q-89 9 -161 52q-117 55 -159 182q-22 65 -23 121 q0 55 20 103q20 55 48 102t45 68l14 20l-16 -20q-16 -20 -45 -67.5t-52 -100.5q-22 -60 -22 -128q0 -9 1 -18q3 -78 51 -158.5t128 -121.5q76 -47 169 -60q45 -6 85 -5q44 0 84 7q76 13 143 41q59 20 127 60l6 -33q-43 -29 -118 -61q-72 -31 -151 -47q-47 -10 -102 -10 q-38 0 -80 4q-103 11 -188 61q-137 63 -191 219q-28 80 -28 149q0 65 25 121q23 61 53.5 114.5t48.5 76.5l17 22l-17 -20q-18 -23 -51 -76t-57 -115q-26 -70 -26 -154v-19q3 -95 62.5 -192t153.5 -145q86 -55 194 -69q52 -7 98 -7q50 0 94 8q85 15 157 46q63 27 115 53 l39 -203l43 -225l-205 -104q-74 -35 -166 -54q-106 -18 -201 -18h-2q-256 0 -450 125q-195 127 -275 348q-49 127 -49 283z" />
<glyph unicode="D" horiz-adv-x="1421" d="M0 78v31q317 10 557 145q213 106 305 358q28 75 28 96q0 5 -1 7l-15 -58q-72 -217 -241 -335q-41 -29 -86 -50q-238 -123 -547 -122v30q299 10 522 137q70 35 126.5 89.5t87 105.5t51 101.5t26.5 78t6 35.5q0 -20 -22.5 -82.5t-98 -161t-186.5 -147.5 q-221 -115 -512 -115v1256l258 41q135 23 328 22q172 0 297 -35q152 -41 258 -123q137 -100 207 -254q72 -150 71 -335q0 -193 -69 -347q-66 -150 -191 -258h-2q-127 -102 -295 -149q-141 -39 -321 -39q-164 0 -275 14l-190 27q297 27 516 149q102 57 185 143.5t122 174.5 q23 49 38 98t19 74l5 22l-3 -10l-6 -25q-4 -17 -11 -40t-19.5 -53.5t-28.5 -61.5q-41 -86 -125 -169t-186 -134q-254 -131 -582 -131zM1141 1382h2v-2q0 2 -2 2z" />
<glyph unicode="E" d="M0 0v1540h1188v-465l-551 -20l551 -21v-30l-551 -21l551 -20v-33l-551 -21l551 -20v-98h18v-265l-569 -20q506 -18 569 -21v-30l-569 -21q506 -20 569 -22v-31l-569 -21q506 -18 569 -20v-340h-1206z" />
<glyph unicode="F" horiz-adv-x="1189" d="M0 -4v1544h1186v-596l-565 -20q477 -18 565 -23v-31l-565 -20q477 -18 565 -21v-32l-565 -21q477 -16 565 -20v-8h-25v-381h-330v-371h-831z" />
<glyph unicode="G" horiz-adv-x="1431" d="M0 758v8q-2 168 64.5 320.5t187.5 254.5q227 199 569 199q109 0 211 -20q96 -18 172 -56l226 -108l-54 -205l-968 -16q961 -25 999 -25v-31l-999 -16q967 -25 999 -25v-30l-1001 -17q977 -25 1001 -24v-822l-207 -69q-203 -68 -399 -68q-178 0 -314 47q-156 51 -266 160 q-221 213 -221 543z" />
<glyph unicode="H" horiz-adv-x="1380" d="M0 0v1540h621l20 -508q18 451 21 508h30l23 -508q18 451 20 508h31l20 -508q18 451 23 508h571v-1540h-563l-20 485q-16 -379 -21 -485h-33l-20 485q-16 -379 -21 -485h-32l-21 485l-18 -485h-631z" />
<glyph unicode="I" horiz-adv-x="829" d="M0 0v1540h829v-1540h-608l-16 1016q-25 -969 -27 -1016h-31l-16 1016q-25 -971 -25 -1016h-30l-17 1016q-27 -975 -26 -1016h-33z" />
<glyph unicode="J" horiz-adv-x="1120" d="M-2 119l108 784l193 -63v2q52 -11 99 -11.5t89 11.5q25 6 49.5 16t43 22.5t36 27t29.5 26.5t23 25l16 22l12 16l4 9l-8 -11l-21 -25q-11 -13 -32 -30.5t-42.5 -32t-52 -27t-63.5 -18.5q-27 -5 -55 -4q-60 0 -127 21v39q51 -14 97 -15q39 0 75 10q23 6 44.5 15.5t37.5 22 t29.5 24.5t23.5 24l18 22q7 9 11 17l6 9q-74 -98 -174 -113q-24 -4 -47 -4l-121 26v35q54 -17 98 -16q32 0 60 8q18 4 35.5 13.5t30 19.5t23.5 23.5t17 21.5l12 16l7 10l-9 -8q-6 -8 -13 -15t-19.5 -18.5t-25.5 -19.5t-30.5 -14t-33.5 -8q-17 -3 -35 -4q-57 0 -117 36v504 h819v-883q0 -166 -49 -290q-55 -152 -182 -246q-74 -55 -172 -88q-92 -29 -228 -33q-78 4 -120 10q-78 12 -127 29z" />
<glyph unicode="K" horiz-adv-x="1685" d="M0 0v1540h872l-438 -520l481 520h52l-478 -567l527 567h47l-518 -616l569 616h565l-561 -723l496 -817h-608l-451 616l401 -616h-41l-419 573l372 -573h-43l-391 532l348 -532h-782z" />
<glyph unicode="L" horiz-adv-x="1198" d="M0 -2v1542h829v-559l-419 -29q330 -8 419 -10v-33l-417 -28q326 -10 417 -13v-32l-415 -29q322 -8 415 -12v-2h367v-795h-1196z" />
<glyph unicode="M" horiz-adv-x="1681" d="M2 0l98 1540h228l497 -534l-444 534h47l453 -485l-406 485h51l410 -438l-367 438h1022l86 -1540h-704l-23 264l-119 -135l-126 127l-13 -256h-690z" />
<glyph unicode="N" horiz-adv-x="1380" d="M0 0v1540h428l475 -749l-428 749h41l451 -713l-408 713h43l426 -674l-385 674h737v-1540h-493l-469 739l422 -739h-39l-445 700l400 -700h-43l-420 664l379 -664h-672z" />
<glyph unicode="O" horiz-adv-x="1476" d="M0 764v13q0 311 199 528q49 57 120 106q-2 -36 -2 -65t2 -52q2 -135 100.5 -280.5t244.5 -212.5q117 -61 191.5 -160.5t90.5 -202.5q9 -49 9 -92q0 -8 -1 -16q-2 -49 -6 -75t-6 -30q17 54 18 121q0 43 -8 92q-12 104 -86.5 210t-191.5 169q-141 72 -231.5 212t-88.5 269 q-1 23 -1 44q0 53 7 96q6 4 18.5 10t18.5 10q-9 -48 -9 -99q0 -29 3 -59q2 -123 87 -248.5t220 -189.5q129 -66 215 -181.5t103 -229.5q11 -63 10 -113v-16q-2 -55 -8 -86l-6 -31l6 31q6 31 10 86q1 16 1 33q0 43 -7 96q-12 117 -98 238.5t-215 191.5q-127 68 -205 187.5 t-78 234.5q-1 22 -1 43q0 71 15 133q12 6 37 14q-18 -68 -18 -139q0 -24 2 -47q4 -109 77.5 -215.5t194.5 -167.5q139 -68 236.5 -200t115.5 -261q12 -64 12 -120v-24q-3 -66 -8.5 -96t-9.5 -37q4 8 10.5 37t12.5 95q2 20 2 41q0 49 -10 104q-16 131 -112.5 268t-238.5 211 q-117 63 -180 163.5t-65 203.5q-1 17 -1 33q0 88 27 167q104 31 219 31q164 0 305.5 -61.5t241.5 -178.5q184 -211 185 -522v-13q0 -327 -205 -544q-102 -109 -242.5 -165t-292.5 -56h-8q-160 0 -301 61q-135 57 -240 175q-186 215 -186 528z" />
<glyph unicode="P" horiz-adv-x="1275" d="M0 0v1473l258 45q135 23 332 22q131 0 244 -29q129 -33 229 -112.5t156.5 -198.5t56.5 -254v-10q0 -117 -44 -229q-46 -117 -136 -203q-41 -39 -88 -70l-17 586q-12 -389 -18 -606l-37 -19l-18 625l-19 -641l-17.5 -6l-17.5 -6l-18 653l-21 -666h-2v-354h-823zM1061 1401 l2 -2z" />
<glyph unicode="Q" horiz-adv-x="1576" d="M0 760q0 326 199 543q100 113 244 176q140 62 293 61h9q168 0 308 -63q143 -63 241 -177q184 -213 185 -522q0 -109 -21 -198q-147 53 -229 145q-29 29 -51.5 62.5t-36 68.5t-22.5 67.5t-14 64.5t-6 53.5t-1 41.5l-2 21q0 2 -2 2l2 -2l-2 -14q0 -14 1 -27.5t1 -36 t3 -46.5t8 -50.5t14 -54t21.5 -55t30 -56.5t39.5 -53q53 -66 136.5 -114t133.5 -64.5t93 -24.5l-10 -29q-45 6 -100.5 21.5t-142.5 62.5t-148 115q-33 33 -58.5 73t-40 79.5t-26 76.5t-15.5 73t-7 58.5t-3 44.5v23q0 2 -2 2q2 0 2 -2v-16q-2 -14 -1 -30t1 -40.5t4 -50 t10 -56t16.5 -61.5t24 -62.5t35 -64.5t45.5 -61q143 -172 389 -224l-10 -30q-260 47 -418 221q-37 39 -65.5 84t-46 89t-29.5 85t-17.5 80t-7.5 64.5t-2 49.5v25q0 2 -2 2q2 0 2 -2v-31q0 -31 1 -63.5t9.5 -84.5t23.5 -101.5t46 -106.5t72 -105q158 -186 420 -243l-119 -320 l-98 -266l-273 80q-199 59 -368 131q-272 23 -461 215q-98 102 -153 245q-52 137 -52 290v12z" />
<glyph unicode="R" horiz-adv-x="1509" d="M0 -2v1477l258 43q141 23 326 22q135 0 247 -24q141 -37 244 -115q96 -78 152 -197q49 -111 49 -237q0 -68 -21 -144q-20 -35 -47.5 -70.5t-89 -86t-131.5 -74.5q-49 -20 -106.5 -32.5t-106.5 -14.5q-25 -1 -47 -1t-42 1q-40 2 -66.5 4t-28.5 2l28 -4q27 -4 67 -8t89 -4 t108.5 9t112.5 27q119 39 211 131l15 -40q-92 -96 -207 -138q-55 -23 -120 -36t-118 -15q-35 -1 -66 -1h-30q-43 1 -71.5 4t-30.5 3l28 -4q31 -6 74 -9t97 -3t120 10t125 31q106 35 209 121l12 -43q-98 -86 -205 -127q-63 -25 -132.5 -39.5t-126.5 -16.5q-28 -1 -54 -1 t-49 1q-47 2 -77 5.5t-32 3.5q2 0 32 -4.5t77 -8.5t104 -5h9q54 0 120 11q72 12 138 35q104 33 204 111q2 -6 5.5 -19.5t5.5 -19.5q12 -49 20 -74l219 -436h-1501z" />
<glyph unicode="S" horiz-adv-x="1298" d="M0 209l80 321q170 -102 326 -106q29 -3 58 -3q40 0 81 5q72 8 126 23.5t97 31t69.5 27.5t28.5 12l-30 -12l-69 -24q-40 -13 -100.5 -26.5t-122.5 -17.5q-21 -1 -43 -1q-44 0 -93 5q-162 12 -320 123l10 35v2q150 -102 314 -110q23 -2 46 -2q29 0 60 3q55 5 98 14t85 22.5 t69 24.5t47 22l21 8l-27 -11l-67 -23q-38 -13 -93 -25.5t-112 -15.5q-19 -1 -40 -1q-41 0 -85 4q-162 14 -308 129l11 35q147 -109 303 -113q20 -2 41 -2q26 0 54 3q50 5 89 14.5t78 21.5t63 23l46 18l18 8l-12 -4q-12 -6 -28 -11l-39 -13q-24 -8 -49.5 -14.5t-58 -13.5 t-63.5 -10t-67 -4q-5 0 -11 -1q-31 0 -59 6q-172 16 -309 147q-2 4 -6.5 11.5t-6.5 11.5q-41 100 -41 209q0 127 52 237q51 109 149 191q180 147 445 147q193 0 354 -72l237 -106l-75 -277q-150 88 -306 97q-29 3 -58 2q-40 0 -81 -4q-72 -8 -126 -23.5t-97 -31t-70.5 -28 t-29.5 -12.5q2 0 30.5 11.5t69.5 25t100.5 25.5t122.5 16q25 2 53 2q41 0 84 -4q156 -16 297 -110l-10 -37q-145 92 -291 96l-45 2q-40 0 -82 -5q-66 -7 -116 -21.5t-89.5 -29t-65.5 -25.5t-28 -11l29 10q27 10 64.5 22.5t93 25t112.5 15.5q19 1 40 1q41 0 85 -4 q147 -12 283 -111l-10 -37q-135 90 -279 96q-22 2 -45 2q-34 0 -69 -4q-58 -6 -105 -19t-84 -26.5t-61 -23.5l-25 -13l27 11q27 10 60.5 20t85.5 22.5t103 14.5q13 1 27 0q40 0 84 -4q154 -14 279 -121q43 -59 63 -121q33 -92 33 -199q0 -112 -49 -224q-51 -116 -146 -195 q-184 -156 -471 -156h-2q-104 0 -217 25q-100 25 -184 69z" />
<glyph unicode="T" horiz-adv-x="1327" d="M0 745v795h1327v-795h-252l-434 -20q379 -18 434 -20v-33l-434 -19q379 -20 434 -22v-31l-434 -20q381 -18 434 -23v-555h-827v743h-248z" />
<glyph unicode="U" horiz-adv-x="1357" d="M0 725v815h473l39 -958q2 842 2 958h31l39 -958q2 838 2 958h30l39 -956q4 831 4 956h699v-817q0 -236 -98 -410q-53 -92 -139.5 -162.5t-184.5 -105.5q-121 -43 -264 -43q-223 0 -385 104q-182 119 -248 340q-39 132 -39 279z" />
<glyph unicode="V" horiz-adv-x="1705" d="M0 1540h494l264 -940l-226 940h37l258 -922l-221 922h37l256 -903l-217 903h1018l-518 -1536h-690z" />
<glyph unicode="W" horiz-adv-x="1959" d="M-2 1540h485l267 -944l-228 944h37l260 -926l-221 926h37l254 -907l-217 907h385l266 -944l-227 944h37l260 -926l-222 926h37l254 -907l-217 907h715l-397 -1538h-1201z" />
<glyph unicode="X" horiz-adv-x="1873" d="M2 0l444 774l-432 764h705l467 -735l-420 735h41l442 -698l-399 698h43l418 -659l-377 659h917l-438 -758l453 -780h-688l-459 723l414 -723h-41l-435 686l392 -686h-43l-412 647l371 -647h-963z" />
<glyph unicode="Y" horiz-adv-x="1851" d="M2 1540h1032l-340 -709l379 709h41l-354 -741l397 741h39l-371 -774l414 774h612l-524 -928v-612h-827v610z" />
<glyph unicode="Z" horiz-adv-x="1335" d="M0 0v338l737 774l-737 -717v49l684 719l-684 -665v20l80 115l553 581l-479 -466h-113v792h1288v-379l-743 -727l743 670v-45l-694 -678l682 614l-105 -153l-526 -514l514 465h135v-793h-1335z" />
<glyph unicode="[" horiz-adv-x="610" d="M0 -63v1652h606v-389h-194v-876h194v-387h-606z" />
<glyph unicode="\" horiz-adv-x="1011" d="M-2 1534h432l574 -1528h-433z" />
<glyph unicode="]" horiz-adv-x="1705" d="M0 -66v390h195v876h-195v387h606v-1653h-606z" />
<glyph unicode="a" horiz-adv-x="1677" d="M0 0l469 1538h731l477 -1538h-968l200 883l-241 -883h-33l205 899l-248 -899h-33l209 918l-250 -918h-518z" />
<glyph unicode="b" horiz-adv-x="1298" d="M0 53v1413l248 50q55 12 153 18q80 6 172 6q117 0 213 -16q115 -20 209 -76q117 -66 185 -170q80 -121 80 -261v-13v-5q-162 96 -316 101q-28 1 -53.5 1t-48.5 -1q-47 -2 -95.5 -11.5t-86 -18.5t-71.5 -21.5t-56.5 -22.5t-38.5 -18l-17 -7l31 11q29 12 69.5 25.5 t101 27.5t124.5 17q21 1 44 1q45 0 95 -4q166 -16 315 -121q0 -12 -4 -40q-154 102 -317 110l-45 2q-40 0 -82 -5q-66 -7 -117 -21.5t-92 -30t-66.5 -26.5t-27.5 -11l29 10l66 24q38 13 94.5 25.5t113.5 15.5q19 1 39 1q41 0 86 -4q160 -14 311 -129q-8 -25 -10 -35 q-152 109 -305 112l-41 2q-36 0 -74 -5q-59 -7 -107.5 -20t-85 -26.5t-61 -25t-26.5 -11.5q2 0 27.5 10.5t61 21.5t87 22.5t104.5 14.5q18 1 36 1q37 0 77 -4q84 -8 165 -49t117.5 -72t49.5 -47q33 -94 32 -188q0 -133 -61 -250q-51 -104 -148 -183h-2q-104 -84 -256 -120 q-129 -29 -295 -29q-164 0 -268 16z" />
<glyph unicode="c" horiz-adv-x="1372" d="M-2 756v10q0 162 62 311q65 154 180 258q227 203 553 203q92 0 198 -18q106 -27 164 -56l215 -112l-143 -557q-55 -39 -144 -78q-59 -27 -122 -40q-39 -8 -83 -8q-27 0 -56 3q-75 8 -134 43q-96 47 -129 141q-17 49 -17 95q0 43 15 83q16 47 42 90t40 62.5t12 19.5 q2 0 -13 -19.5t-42 -61.5t-45 -89q-19 -50 -19 -104v-11q2 -60 40 -124t106 -101q61 -39 141 -50q40 -6 76.5 -5.5t70.5 5.5q67 11 130 38q59 23 139 68l6 -33q-63 -39 -131 -70q-66 -29 -137 -43q-44 -9 -94 -9q-32 0 -67 4q-89 9 -161 52q-117 55 -159 182q-22 65 -23 121 q0 55 20 103q20 55 48 102t45 68l14 20l-16 -20q-16 -20 -45 -67.5t-52 -100.5q-22 -60 -22 -128q0 -9 1 -18q3 -78 51 -158.5t128 -121.5q76 -47 169 -60q45 -6 85 -5q44 0 84 7q76 13 143 41q59 20 127 60l6 -33q-43 -29 -118 -61q-72 -31 -151 -47q-47 -10 -102 -10 q-38 0 -80 4q-103 11 -188 61q-137 63 -191 219q-28 80 -28 149q0 65 25 121q23 61 53.5 114.5t48.5 76.5l17 22l-17 -20q-18 -23 -51 -76t-57 -115q-26 -70 -26 -154v-19q3 -95 62.5 -192t153.5 -145q86 -55 194 -69q52 -7 98 -7q50 0 94 8q85 15 157 46q63 27 115 53 l39 -203l43 -225l-205 -104q-74 -35 -166 -54q-106 -18 -201 -18h-2q-256 0 -450 125q-195 127 -275 348q-49 127 -49 283z" />
<glyph unicode="d" horiz-adv-x="1421" d="M0 78v31q317 10 557 145q213 106 305 358q28 75 28 96q0 5 -1 7l-15 -58q-72 -217 -241 -335q-41 -29 -86 -50q-238 -123 -547 -122v30q299 10 522 137q70 35 126.5 89.5t87 105.5t51 101.5t26.5 78t6 35.5q0 -20 -22.5 -82.5t-98 -161t-186.5 -147.5 q-221 -115 -512 -115v1256l258 41q135 23 328 22q172 0 297 -35q152 -41 258 -123q137 -100 207 -254q72 -150 71 -335q0 -193 -69 -347q-66 -150 -191 -258h-2q-127 -102 -295 -149q-141 -39 -321 -39q-164 0 -275 14l-190 27q297 27 516 149q102 57 185 143.5t122 174.5 q23 49 38 98t19 74l5 22l-3 -10l-6 -25q-4 -17 -11 -40t-19.5 -53.5t-28.5 -61.5q-41 -86 -125 -169t-186 -134q-254 -131 -582 -131zM1141 1382h2v-2q0 2 -2 2z" />
<glyph unicode="e" d="M0 0v1540h1188v-465l-551 -20l551 -21v-30l-551 -21l551 -20v-33l-551 -21l551 -20v-98h18v-265l-569 -20q506 -18 569 -21v-30l-569 -21q506 -20 569 -22v-31l-569 -21q506 -18 569 -20v-340h-1206z" />
<glyph unicode="f" horiz-adv-x="1189" d="M0 -4v1544h1186v-596l-565 -20q477 -18 565 -23v-31l-565 -20q477 -18 565 -21v-32l-565 -21q477 -16 565 -20v-8h-25v-381h-330v-371h-831z" />
<glyph unicode="g" horiz-adv-x="1431" d="M0 758v8q-2 168 64.5 320.5t187.5 254.5q227 199 569 199q109 0 211 -20q96 -18 172 -56l226 -108l-54 -205l-968 -16q961 -25 999 -25v-31l-999 -16q967 -25 999 -25v-30l-1001 -17q977 -25 1001 -24v-822l-207 -69q-203 -68 -399 -68q-178 0 -314 47q-156 51 -266 160 q-221 213 -221 543z" />
<glyph unicode="h" horiz-adv-x="1380" d="M0 0v1540h621l20 -508q18 451 21 508h30l23 -508q18 451 20 508h31l20 -508q18 451 23 508h571v-1540h-563l-20 485q-16 -379 -21 -485h-33l-20 485q-16 -379 -21 -485h-32l-21 485l-18 -485h-631z" />
<glyph unicode="i" horiz-adv-x="829" d="M0 0v1540h829v-1540h-608l-16 1016q-25 -969 -27 -1016h-31l-16 1016q-25 -971 -25 -1016h-30l-17 1016q-27 -975 -26 -1016h-33z" />
<glyph unicode="j" horiz-adv-x="1120" d="M-2 119l108 784l193 -63v2q52 -11 99 -11.5t89 11.5q25 6 49.5 16t43 22.5t36 27t29.5 26.5t23 25l16 22l12 16l4 9l-8 -11l-21 -25q-11 -13 -32 -30.5t-42.5 -32t-52 -27t-63.5 -18.5q-27 -5 -55 -4q-60 0 -127 21v39q51 -14 97 -15q39 0 75 10q23 6 44.5 15.5t37.5 22 t29.5 24.5t23.5 24l18 22q7 9 11 17l6 9q-74 -98 -174 -113q-24 -4 -47 -4l-121 26v35q54 -17 98 -16q32 0 60 8q18 4 35.5 13.5t30 19.5t23.5 23.5t17 21.5l12 16l7 10l-9 -8q-6 -8 -13 -15t-19.5 -18.5t-25.5 -19.5t-30.5 -14t-33.5 -8q-17 -3 -35 -4q-57 0 -117 36v504 h819v-883q0 -166 -49 -290q-55 -152 -182 -246q-74 -55 -172 -88q-92 -29 -228 -33q-78 4 -120 10q-78 12 -127 29z" />
<glyph unicode="k" horiz-adv-x="1685" d="M0 0v1540h872l-438 -520l481 520h52l-478 -567l527 567h47l-518 -616l569 616h565l-561 -723l496 -817h-608l-451 616l401 -616h-41l-419 573l372 -573h-43l-391 532l348 -532h-782z" />
<glyph unicode="l" horiz-adv-x="1198" d="M0 -2v1542h829v-559l-419 -29q330 -8 419 -10v-33l-417 -28q326 -10 417 -13v-32l-415 -29q322 -8 415 -12v-2h367v-795h-1196z" />
<glyph unicode="m" horiz-adv-x="1681" d="M2 0l98 1540h228l497 -534l-444 534h47l453 -485l-406 485h51l410 -438l-367 438h1022l86 -1540h-704l-23 264l-119 -135l-126 127l-13 -256h-690z" />
<glyph unicode="n" horiz-adv-x="1380" d="M0 0v1540h428l475 -749l-428 749h41l451 -713l-408 713h43l426 -674l-385 674h737v-1540h-493l-469 739l422 -739h-39l-445 700l400 -700h-43l-420 664l379 -664h-672z" />
<glyph unicode="o" horiz-adv-x="1476" d="M0 764v13q0 311 199 528q49 57 120 106q-2 -36 -2 -65t2 -52q2 -135 100.5 -280.5t244.5 -212.5q117 -61 191.5 -160.5t90.5 -202.5q9 -49 9 -92q0 -8 -1 -16q-2 -49 -6 -75t-6 -30q17 54 18 121q0 43 -8 92q-12 104 -86.5 210t-191.5 169q-141 72 -231.5 212t-88.5 269 q-1 23 -1 44q0 53 7 96q6 4 18.5 10t18.5 10q-9 -48 -9 -99q0 -29 3 -59q2 -123 87 -248.5t220 -189.5q129 -66 215 -181.5t103 -229.5q11 -63 10 -113v-16q-2 -55 -8 -86l-6 -31l6 31q6 31 10 86q1 16 1 33q0 43 -7 96q-12 117 -98 238.5t-215 191.5q-127 68 -205 187.5 t-78 234.5q-1 22 -1 43q0 71 15 133q12 6 37 14q-18 -68 -18 -139q0 -24 2 -47q4 -109 77.5 -215.5t194.5 -167.5q139 -68 236.5 -200t115.5 -261q12 -64 12 -120v-24q-3 -66 -8.5 -96t-9.5 -37q4 8 10.5 37t12.5 95q2 20 2 41q0 49 -10 104q-16 131 -112.5 268t-238.5 211 q-117 63 -180 163.5t-65 203.5q-1 17 -1 33q0 88 27 167q104 31 219 31q164 0 305.5 -61.5t241.5 -178.5q184 -211 185 -522v-13q0 -327 -205 -544q-102 -109 -242.5 -165t-292.5 -56h-8q-160 0 -301 61q-135 57 -240 175q-186 215 -186 528z" />
<glyph unicode="p" horiz-adv-x="1275" d="M0 0v1473l258 45q135 23 332 22q131 0 244 -29q129 -33 229 -112.5t156.5 -198.5t56.5 -254v-10q0 -117 -44 -229q-46 -117 -136 -203q-41 -39 -88 -70l-17 586q-12 -389 -18 -606l-37 -19l-18 625l-19 -641l-17.5 -6l-17.5 -6l-18 653l-21 -666h-2v-354h-823zM1061 1401 l2 -2z" />
<glyph unicode="q" horiz-adv-x="1576" d="M0 760q0 326 199 543q100 113 244 176q140 62 293 61h9q168 0 308 -63q143 -63 241 -177q184 -213 185 -522q0 -109 -21 -198q-147 53 -229 145q-29 29 -51.5 62.5t-36 68.5t-22.5 67.5t-14 64.5t-6 53.5t-1 41.5l-2 21q0 2 -2 2l2 -2l-2 -14q0 -14 1 -27.5t1 -36 t3 -46.5t8 -50.5t14 -54t21.5 -55t30 -56.5t39.5 -53q53 -66 136.5 -114t133.5 -64.5t93 -24.5l-10 -29q-45 6 -100.5 21.5t-142.5 62.5t-148 115q-33 33 -58.5 73t-40 79.5t-26 76.5t-15.5 73t-7 58.5t-3 44.5v23q0 2 -2 2q2 0 2 -2v-16q-2 -14 -1 -30t1 -40.5t4 -50 t10 -56t16.5 -61.5t24 -62.5t35 -64.5t45.5 -61q143 -172 389 -224l-10 -30q-260 47 -418 221q-37 39 -65.5 84t-46 89t-29.5 85t-17.5 80t-7.5 64.5t-2 49.5v25q0 2 -2 2q2 0 2 -2v-31q0 -31 1 -63.5t9.5 -84.5t23.5 -101.5t46 -106.5t72 -105q158 -186 420 -243l-119 -320 l-98 -266l-273 80q-199 59 -368 131q-272 23 -461 215q-98 102 -153 245q-52 137 -52 290v12z" />
<glyph unicode="r" horiz-adv-x="1509" d="M0 -2v1477l258 43q141 23 326 22q135 0 247 -24q141 -37 244 -115q96 -78 152 -197q49 -111 49 -237q0 -68 -21 -144q-20 -35 -47.5 -70.5t-89 -86t-131.5 -74.5q-49 -20 -106.5 -32.5t-106.5 -14.5q-25 -1 -47 -1t-42 1q-40 2 -66.5 4t-28.5 2l28 -4q27 -4 67 -8t89 -4 t108.5 9t112.5 27q119 39 211 131l15 -40q-92 -96 -207 -138q-55 -23 -120 -36t-118 -15q-35 -1 -66 -1h-30q-43 1 -71.5 4t-30.5 3l28 -4q31 -6 74 -9t97 -3t120 10t125 31q106 35 209 121l12 -43q-98 -86 -205 -127q-63 -25 -132.5 -39.5t-126.5 -16.5q-28 -1 -54 -1 t-49 1q-47 2 -77 5.5t-32 3.5q2 0 32 -4.5t77 -8.5t104 -5h9q54 0 120 11q72 12 138 35q104 33 204 111q2 -6 5.5 -19.5t5.5 -19.5q12 -49 20 -74l219 -436h-1501z" />
<glyph unicode="s" horiz-adv-x="1298" d="M0 209l80 321q170 -102 326 -106q29 -3 58 -3q40 0 81 5q72 8 126 23.5t97 31t69.5 27.5t28.5 12l-30 -12l-69 -24q-40 -13 -100.5 -26.5t-122.5 -17.5q-21 -1 -43 -1q-44 0 -93 5q-162 12 -320 123l10 35v2q150 -102 314 -110q23 -2 46 -2q29 0 60 3q55 5 98 14t85 22.5 t69 24.5t47 22l21 8l-27 -11l-67 -23q-38 -13 -93 -25.5t-112 -15.5q-19 -1 -40 -1q-41 0 -85 4q-162 14 -308 129l11 35q147 -109 303 -113q20 -2 41 -2q26 0 54 3q50 5 89 14.5t78 21.5t63 23l46 18l18 8l-12 -4q-12 -6 -28 -11l-39 -13q-24 -8 -49.5 -14.5t-58 -13.5 t-63.5 -10t-67 -4q-5 0 -11 -1q-31 0 -59 6q-172 16 -309 147q-2 4 -6.5 11.5t-6.5 11.5q-41 100 -41 209q0 127 52 237q51 109 149 191q180 147 445 147q193 0 354 -72l237 -106l-75 -277q-150 88 -306 97q-29 3 -58 2q-40 0 -81 -4q-72 -8 -126 -23.5t-97 -31t-70.5 -28 t-29.5 -12.5q2 0 30.5 11.5t69.5 25t100.5 25.5t122.5 16q25 2 53 2q41 0 84 -4q156 -16 297 -110l-10 -37q-145 92 -291 96l-45 2q-40 0 -82 -5q-66 -7 -116 -21.5t-89.5 -29t-65.5 -25.5t-28 -11l29 10q27 10 64.5 22.5t93 25t112.5 15.5q19 1 40 1q41 0 85 -4 q147 -12 283 -111l-10 -37q-135 90 -279 96q-22 2 -45 2q-34 0 -69 -4q-58 -6 -105 -19t-84 -26.5t-61 -23.5l-25 -13l27 11q27 10 60.5 20t85.5 22.5t103 14.5q13 1 27 0q40 0 84 -4q154 -14 279 -121q43 -59 63 -121q33 -92 33 -199q0 -112 -49 -224q-51 -116 -146 -195 q-184 -156 -471 -156h-2q-104 0 -217 25q-100 25 -184 69z" />
<glyph unicode="t" horiz-adv-x="1327" d="M0 745v795h1327v-795h-252l-434 -20q379 -18 434 -20v-33l-434 -19q379 -20 434 -22v-31l-434 -20q381 -18 434 -23v-555h-827v743h-248z" />
<glyph unicode="u" horiz-adv-x="1357" d="M0 725v815h473l39 -958q2 842 2 958h31l39 -958q2 838 2 958h30l39 -956q4 831 4 956h699v-817q0 -236 -98 -410q-53 -92 -139.5 -162.5t-184.5 -105.5q-121 -43 -264 -43q-223 0 -385 104q-182 119 -248 340q-39 132 -39 279z" />
<glyph unicode="v" horiz-adv-x="1705" d="M0 1540h494l264 -940l-226 940h37l258 -922l-221 922h37l256 -903l-217 903h1018l-518 -1536h-690z" />
<glyph unicode="w" horiz-adv-x="1959" d="M-2 1540h485l267 -944l-228 944h37l260 -926l-221 926h37l254 -907l-217 907h385l266 -944l-227 944h37l260 -926l-222 926h37l254 -907l-217 907h715l-397 -1538h-1201z" />
<glyph unicode="x" horiz-adv-x="1873" d="M2 0l444 774l-432 764h705l467 -735l-420 735h41l442 -698l-399 698h43l418 -659l-377 659h917l-438 -758l453 -780h-688l-459 723l414 -723h-41l-435 686l392 -686h-43l-412 647l371 -647h-963z" />
<glyph unicode="y" horiz-adv-x="1851" d="M2 1540h1032l-340 -709l379 709h41l-354 -741l397 741h39l-371 -774l414 774h612l-524 -928v-612h-827v610z" />
<glyph unicode="z" horiz-adv-x="1335" d="M0 0v338l737 774l-737 -717v49l684 719l-684 -665v20l80 115l553 581l-479 -466h-113v792h1288v-379l-743 -727l743 670v-45l-694 -678l682 614l-105 -153l-526 -514l514 465h135v-793h-1335z" />
<glyph unicode="{" horiz-adv-x="696" d="M0 557v442h106q0 2 -1 6.5t-1 6.5q-12 82 -12 145q0 72 21 133q23 70 67 117q35 39 68 57q45 31 100 47q59 16 133 17h215v-449h-131v-2q2 -4 2 -6q12 -78 13 -135v-6q0 -72 -19 -121q-2 -10 -10 -31q6 -14 14 -43q14 -49 15 -106v-6q0 -59 -13 -138q0 -2 -1 -5t-1 -5 h131v-448h-184h-31q-51 0 -110 12q-61 14 -115 47q-35 20 -70 55q-43 45 -65 105q-29 74 -29 162q0 66 12 143q0 4 2 6h-106zM567 485v2v-2z" />
<glyph unicode="|" horiz-adv-x="409" d="M0 -236v1997h408v-1997h-408z" />
<glyph unicode="}" horiz-adv-x="698" d="M0 27v448h131q0 10 -2 14q-12 70 -12 134q0 68 16 122q2 4 6 16.5t6 16.5q-2 8 -8 23.5t-8 23.5q-12 55 -12 109q0 31 12 135q2 4 2 10h-131v449h213q68 0 115 -12q61 -14 112 -46q35 -20 70 -55q41 -43 65 -100q31 -70 31 -158q0 -49 -14 -145v-13h106v-442h-106v-6 q14 -90 14 -143q0 -74 -20 -138q-20 -66 -70 -120q-27 -33 -67 -60q-53 -33 -103 -45q-68 -18 -131 -18h-215z" />
<glyph unicode="~" horiz-adv-x="858" d="M-2 696v19q0 72 22 131q25 59 76 108q39 31 74 45q49 20 109 21q41 0 59 -4q35 -8 57 -15q59 -23 99 -43l2 60h352l6 -141q2 -8 2 -23q0 -72 -25 -135q-31 -68 -79 -109q-39 -29 -74 -41q-47 -16 -100 -16q-37 0 -58 4l-55 12q-53 18 -109 45l-2 -59h-350z" />
<glyph unicode="&#xaa;" horiz-adv-x="1677" d="M0 0l469 1538h731l477 -1538h-968l200 883l-241 -883h-33l205 899l-248 -899h-33l209 918l-250 -918h-518z" />
<glyph unicode="&#xad;" horiz-adv-x="575" d="M0 588v366h573v-366h-573z" />
<glyph unicode="&#xb2;" d="M0 1245l156 133q92 76 200 117q127 47 254 47q100 0 203 -33q100 -35 176 -98q49 -43 86 -92q49 -68 74 -141q33 -96 33 -195q0 -86 -23 -170q-25 -82 -63 -151q0 -2 -2 -7h112v-655h-1171v461l604 588l-393 -353l-19 43l365 359l-375 -338l-18 45l348 342l-359 -324 l-61 142z" />
<glyph unicode="&#xb3;" d="M-6 213l72 203l36 102l56 156l272 -152l-268 164l18 51l285 -157l-281 172l15 39v14l299 -166l-299 182l303 176l-303 -159v4l-19 47l289 166l-293 -154l-18 51l280 162l-284 -149l-15 43l-104 286l164 121q29 20 90 53q43 20 96 39q119 35 231 35q137 0 242 -45 q119 -47 195 -139q51 -57 80 -131q37 -92 36 -191q0 -61 -14 -116q-8 -43 -29 -86q33 -57 45 -89q35 -94 35 -192q0 -133 -57 -248q-59 -119 -170 -199q-68 -49 -158 -81q-115 -39 -243 -39q-78 0 -175 18q-78 18 -145 47q-43 16 -86 45z" />
<glyph unicode="&#xb9;" horiz-adv-x="915" d="M-2 1280l188 100l275 146h452v-135l-378 -371l378 342v-64l-331 -325l331 299v-68l-286 -280l286 258v-1180h-671v674l-80 -43l-86 340z" />
<glyph unicode="&#xba;" horiz-adv-x="1476" d="M0 764v13q0 311 199 528q49 57 120 106q-2 -36 -2 -65t2 -52q2 -135 100.5 -280.5t244.5 -212.5q117 -61 191.5 -160.5t90.5 -202.5q9 -49 9 -92q0 -8 -1 -16q-2 -49 -6 -75t-6 -30q17 54 18 121q0 43 -8 92q-12 104 -86.5 210t-191.5 169q-141 72 -231.5 212t-88.5 269 q-1 23 -1 44q0 53 7 96q6 4 18.5 10t18.5 10q-9 -48 -9 -99q0 -29 3 -59q2 -123 87 -248.5t220 -189.5q129 -66 215 -181.5t103 -229.5q11 -63 10 -113v-16q-2 -55 -8 -86l-6 -31l6 31q6 31 10 86q1 16 1 33q0 43 -7 96q-12 117 -98 238.5t-215 191.5q-127 68 -205 187.5 t-78 234.5q-1 22 -1 43q0 71 15 133q12 6 37 14q-18 -68 -18 -139q0 -24 2 -47q4 -109 77.5 -215.5t194.5 -167.5q139 -68 236.5 -200t115.5 -261q12 -64 12 -120v-24q-3 -66 -8.5 -96t-9.5 -37q4 8 10.5 37t12.5 95q2 20 2 41q0 49 -10 104q-16 131 -112.5 268t-238.5 211 q-117 63 -180 163.5t-65 203.5q-1 17 -1 33q0 88 27 167q104 31 219 31q164 0 305.5 -61.5t241.5 -178.5q184 -211 185 -522v-13q0 -327 -205 -544q-102 -109 -242.5 -165t-292.5 -56h-8q-160 0 -301 61q-135 57 -240 175q-186 215 -186 528z" />
<glyph unicode="&#xc3;" horiz-adv-x="1677" d="M406 1806v19q0 72 22 131q25 59 76 108q39 31 74 45q49 20 109 21q41 0 59 -4q35 -8 57 -15q59 -23 99 -43l2 60h352l6 -141q2 -8 2 -23q0 -72 -25 -135q-31 -68 -79 -109q-39 -29 -74 -41q-47 -16 -100 -16q-37 0 -58 4l-55 12q-53 18 -109 45l-2 -59h-350zM0 0 l469 1538h731l477 -1538h-968l200 883l-241 -883h-33l205 899l-248 -899h-33l209 918l-250 -918h-518z" />
<glyph unicode="&#xd1;" horiz-adv-x="1380" d="M260 1806v19q0 72 22 131q25 59 76 108q39 31 74 45q49 20 109 21q41 0 59 -4q35 -8 57 -15q59 -23 99 -43l2 60h352l6 -141q2 -8 2 -23q0 -72 -25 -135q-31 -68 -79 -109q-39 -29 -74 -41q-47 -16 -100 -16q-37 0 -58 4l-55 12q-53 18 -109 45l-2 -59h-350zM0 0v1540 h428l475 -749l-428 749h41l451 -713l-408 713h43l426 -674l-385 674h737v-1540h-493l-469 739l422 -739h-39l-445 700l400 -700h-43l-420 664l379 -664h-672z" />
<glyph unicode="&#xd5;" horiz-adv-x="1476" d="M313 1806v19q0 72 22 131q25 59 76 108q39 31 74 45q49 20 109 21q41 0 59 -4q35 -8 57 -15q59 -23 99 -43l2 60h352l6 -141q2 -8 2 -23q0 -72 -25 -135q-31 -68 -79 -109q-39 -29 -74 -41q-47 -16 -100 -16q-37 0 -58 4l-55 12q-53 18 -109 45l-2 -59h-350zM0 764v13 q0 311 199 528q49 57 120 106q-2 -36 -2 -65t2 -52q2 -135 100.5 -280.5t244.5 -212.5q117 -61 191.5 -160.5t90.5 -202.5q9 -49 9 -92q0 -8 -1 -16q-2 -49 -6 -75t-6 -30q17 54 18 121q0 43 -8 92q-12 104 -86.5 210t-191.5 169q-141 72 -231.5 212t-88.5 269q-1 23 -1 44 q0 53 7 96q6 4 18.5 10t18.5 10q-9 -48 -9 -99q0 -29 3 -59q2 -123 87 -248.5t220 -189.5q129 -66 215 -181.5t103 -229.5q11 -63 10 -113v-16q-2 -55 -8 -86l-6 -31l6 31q6 31 10 86q1 16 1 33q0 43 -7 96q-12 117 -98 238.5t-215 191.5q-127 68 -205 187.5t-78 234.5 q-1 22 -1 43q0 71 15 133q12 6 37 14q-18 -68 -18 -139q0 -24 2 -47q4 -109 77.5 -215.5t194.5 -167.5q139 -68 236.5 -200t115.5 -261q12 -64 12 -120v-24q-3 -66 -8.5 -96t-9.5 -37q4 8 10.5 37t12.5 95q2 20 2 41q0 49 -10 104q-16 131 -112.5 268t-238.5 211 q-117 63 -180 163.5t-65 203.5q-1 17 -1 33q0 88 27 167q104 31 219 31q164 0 305.5 -61.5t241.5 -178.5q184 -211 185 -522v-13q0 -327 -205 -544q-102 -109 -242.5 -165t-292.5 -56h-8q-160 0 -301 61q-135 57 -240 175q-186 215 -186 528z" />
<glyph unicode="&#xe3;" horiz-adv-x="1677" d="M406 1806v19q0 72 22 131q25 59 76 108q39 31 74 45q49 20 109 21q41 0 59 -4q35 -8 57 -15q59 -23 99 -43l2 60h352l6 -141q2 -8 2 -23q0 -72 -25 -135q-31 -68 -79 -109q-39 -29 -74 -41q-47 -16 -100 -16q-37 0 -58 4l-55 12q-53 18 -109 45l-2 -59h-350zM0 0 l469 1538h731l477 -1538h-968l200 883l-241 -883h-33l205 899l-248 -899h-33l209 918l-250 -918h-518z" />
<glyph unicode="&#xf1;" horiz-adv-x="1380" d="M260 1806v19q0 72 22 131q25 59 76 108q39 31 74 45q49 20 109 21q41 0 59 -4q35 -8 57 -15q59 -23 99 -43l2 60h352l6 -141q2 -8 2 -23q0 -72 -25 -135q-31 -68 -79 -109q-39 -29 -74 -41q-47 -16 -100 -16q-37 0 -58 4l-55 12q-53 18 -109 45l-2 -59h-350zM0 0v1540 h428l475 -749l-428 749h41l451 -713l-408 713h43l426 -674l-385 674h737v-1540h-493l-469 739l422 -739h-39l-445 700l400 -700h-43l-420 664l379 -664h-672z" />
<glyph unicode="&#xf5;" horiz-adv-x="1476" d="M313 1806v19q0 72 22 131q25 59 76 108q39 31 74 45q49 20 109 21q41 0 59 -4q35 -8 57 -15q59 -23 99 -43l2 60h352l6 -141q2 -8 2 -23q0 -72 -25 -135q-31 -68 -79 -109q-39 -29 -74 -41q-47 -16 -100 -16q-37 0 -58 4l-55 12q-53 18 -109 45l-2 -59h-350zM0 764v13 q0 311 199 528q49 57 120 106q-2 -36 -2 -65t2 -52q2 -135 100.5 -280.5t244.5 -212.5q117 -61 191.5 -160.5t90.5 -202.5q9 -49 9 -92q0 -8 -1 -16q-2 -49 -6 -75t-6 -30q17 54 18 121q0 43 -8 92q-12 104 -86.5 210t-191.5 169q-141 72 -231.5 212t-88.5 269q-1 23 -1 44 q0 53 7 96q6 4 18.5 10t18.5 10q-9 -48 -9 -99q0 -29 3 -59q2 -123 87 -248.5t220 -189.5q129 -66 215 -181.5t103 -229.5q11 -63 10 -113v-16q-2 -55 -8 -86l-6 -31l6 31q6 31 10 86q1 16 1 33q0 43 -7 96q-12 117 -98 238.5t-215 191.5q-127 68 -205 187.5t-78 234.5 q-1 22 -1 43q0 71 15 133q12 6 37 14q-18 -68 -18 -139q0 -24 2 -47q4 -109 77.5 -215.5t194.5 -167.5q139 -68 236.5 -200t115.5 -261q12 -64 12 -120v-24q-3 -66 -8.5 -96t-9.5 -37q4 8 10.5 37t12.5 95q2 20 2 41q0 49 -10 104q-16 131 -112.5 268t-238.5 211 q-117 63 -180 163.5t-65 203.5q-1 17 -1 33q0 88 27 167q104 31 219 31q164 0 305.5 -61.5t241.5 -178.5q184 -211 185 -522v-13q0 -327 -205 -544q-102 -109 -242.5 -165t-292.5 -56h-8q-160 0 -301 61q-135 57 -240 175q-186 215 -186 528z" />
<glyph unicode="&#x152;" horiz-adv-x="2680" d="M1477 0v1540h1188v-465l-551 -20l551 -21v-30l-551 -21l551 -20v-33l-551 -21l551 -20v-98h18v-265l-569 -20q506 -18 569 -21v-30l-569 -21q506 -20 569 -22v-31l-569 -21q506 -18 569 -20v-340h-1206zM0 764v13q0 311 199 528q49 57 120 106q-2 -36 -2 -65t2 -52 q2 -135 100.5 -280.5t244.5 -212.5q117 -61 191.5 -160.5t90.5 -202.5q9 -49 9 -92q0 -8 -1 -16q-2 -49 -6 -75t-6 -30q17 54 18 121q0 43 -8 92q-12 104 -86.5 210t-191.5 169q-141 72 -231.5 212t-88.5 269q-1 23 -1 44q0 53 7 96q6 4 18.5 10t18.5 10q-9 -48 -9 -99 q0 -29 3 -59q2 -123 87 -248.5t220 -189.5q129 -66 215 -181.5t103 -229.5q11 -63 10 -113v-16q-2 -55 -8 -86l-6 -31l6 31q6 31 10 86q1 16 1 33q0 43 -7 96q-12 117 -98 238.5t-215 191.5q-127 68 -205 187.5t-78 234.5q-1 22 -1 43q0 71 15 133q12 6 37 14 q-18 -68 -18 -139q0 -24 2 -47q4 -109 77.5 -215.5t194.5 -167.5q139 -68 236.5 -200t115.5 -261q12 -64 12 -120v-24q-3 -66 -8.5 -96t-9.5 -37q4 8 10.5 37t12.5 95q2 20 2 41q0 49 -10 104q-16 131 -112.5 268t-238.5 211q-117 63 -180 163.5t-65 203.5q-1 17 -1 33 q0 88 27 167q104 31 219 31q164 0 305.5 -61.5t241.5 -178.5q184 -211 185 -522v-13q0 -327 -205 -544q-102 -109 -242.5 -165t-292.5 -56h-8q-160 0 -301 61q-135 57 -240 175q-186 215 -186 528z" />
<glyph unicode="&#x153;" horiz-adv-x="2680" d="M1477 0v1540h1188v-465l-551 -20l551 -21v-30l-551 -21l551 -20v-33l-551 -21l551 -20v-98h18v-265l-569 -20q506 -18 569 -21v-30l-569 -21q506 -20 569 -22v-31l-569 -21q506 -18 569 -20v-340h-1206zM0 764v13q0 311 199 528q49 57 120 106q-2 -36 -2 -65t2 -52 q2 -135 100.5 -280.5t244.5 -212.5q117 -61 191.5 -160.5t90.5 -202.5q9 -49 9 -92q0 -8 -1 -16q-2 -49 -6 -75t-6 -30q17 54 18 121q0 43 -8 92q-12 104 -86.5 210t-191.5 169q-141 72 -231.5 212t-88.5 269q-1 23 -1 44q0 53 7 96q6 4 18.5 10t18.5 10q-9 -48 -9 -99 q0 -29 3 -59q2 -123 87 -248.5t220 -189.5q129 -66 215 -181.5t103 -229.5q11 -63 10 -113v-16q-2 -55 -8 -86l-6 -31l6 31q6 31 10 86q1 16 1 33q0 43 -7 96q-12 117 -98 238.5t-215 191.5q-127 68 -205 187.5t-78 234.5q-1 22 -1 43q0 71 15 133q12 6 37 14 q-18 -68 -18 -139q0 -24 2 -47q4 -109 77.5 -215.5t194.5 -167.5q139 -68 236.5 -200t115.5 -261q12 -64 12 -120v-24q-3 -66 -8.5 -96t-9.5 -37q4 8 10.5 37t12.5 95q2 20 2 41q0 49 -10 104q-16 131 -112.5 268t-238.5 211q-117 63 -180 163.5t-65 203.5q-1 17 -1 33 q0 88 27 167q104 31 219 31q164 0 305.5 -61.5t241.5 -178.5q184 -211 185 -522v-13q0 -327 -205 -544q-102 -109 -242.5 -165t-292.5 -56h-8q-160 0 -301 61q-135 57 -240 175q-186 215 -186 528z" />
<glyph unicode="&#x2dc;" horiz-adv-x="1024" d="M-428 266v19q0 72 22 131q25 59 76 108q39 31 74 45q49 20 109 21q41 0 59 -4q35 -8 57 -15q59 -23 99 -43l2 60h352l6 -141q2 -8 2 -23q0 -72 -25 -135q-31 -68 -79 -109q-39 -29 -74 -41q-47 -16 -100 -16q-37 0 -58 4l-55 12q-53 18 -109 45l-2 -59h-350z" />
<glyph unicode="&#x2000;" horiz-adv-x="1064" />
<glyph unicode="&#x2001;" horiz-adv-x="2129" />
<glyph unicode="&#x2002;" horiz-adv-x="1064" />
<glyph unicode="&#x2003;" horiz-adv-x="2129" />
<glyph unicode="&#x2004;" horiz-adv-x="708" />
<glyph unicode="&#x2005;" horiz-adv-x="532" />
<glyph unicode="&#x2006;" horiz-adv-x="354" />
<glyph unicode="&#x2007;" horiz-adv-x="354" />
<glyph unicode="&#x2008;" horiz-adv-x="266" />
<glyph unicode="&#x2009;" horiz-adv-x="425" />
<glyph unicode="&#x200a;" horiz-adv-x="116" />
<glyph unicode="&#x2010;" horiz-adv-x="575" d="M0 588v366h573v-366h-573z" />
<glyph unicode="&#x2011;" horiz-adv-x="575" d="M0 588v366h573v-366h-573z" />
<glyph unicode="&#x2012;" horiz-adv-x="575" d="M0 588v366h573v-366h-573z" />
<glyph unicode="&#x2013;" horiz-adv-x="1024" d="M0 588v366h1022v-366h-1022z" />
<glyph unicode="&#x2014;" horiz-adv-x="2048" d="M0 588v366h2046v-366h-2046z" />
<glyph unicode="&#x2019;" horiz-adv-x="602" d="M4 1020l78 219l16 51q6 18 19 64q18 84 26 127l17 112l112 13l326 32l-57 -206q-37 -133 -88 -246q-4 -8 -16.5 -30.5t-18.5 -35.5l-37 -63l-76 -8l-69 -7z" />
<glyph unicode="&#x201c;" horiz-adv-x="1107" d="M4 1020l78 219l16 51q6 18 19 64q18 84 26 127l17 112l112 13l326 32l-57 -206q-37 -133 -88 -246q-4 -8 -16.5 -30.5t-18.5 -35.5l-37 -63l-76 -8l-69 -7zM516 1020l78 219l16 51q6 18 19 64q18 84 26 127l17 112l112 13l326 32l-57 -206q-37 -133 -88 -246 q-4 -8 -16.5 -30.5t-18.5 -35.5l-37 -63l-76 -8l-69 -7z" />
<glyph unicode="&#x201d;" horiz-adv-x="1107" d="M4 1020l78 219l16 51q6 18 19 64q18 84 26 127l17 112l112 13l326 32l-57 -206q-37 -133 -88 -246q-4 -8 -16.5 -30.5t-18.5 -35.5l-37 -63l-76 -8l-69 -7zM516 1020l78 219l16 51q6 18 19 64q18 84 26 127l17 112l112 13l326 32l-57 -206q-37 -133 -88 -246 q-4 -8 -16.5 -30.5t-18.5 -35.5l-37 -63l-76 -8l-69 -7z" />
<glyph unicode="&#x2026;" horiz-adv-x="1284" d="M854 215q0 66 33 119q37 59 98 84q43 16 84 16q70 0 123 -39q57 -41 76 -100q14 -37 14 -80q0 -49 -16 -88q-18 -45 -56 -78q-31 -25 -57 -35q-39 -16 -86 -16h-2q-72 0 -123 39q-53 37 -76 100q-12 37 -12 78zM993 190l10 5zM1022 276l4 -4zM1038 145l2 5zM426 215 q0 66 33 119q37 59 98 84q43 16 84 16q70 0 123 -39q57 -41 76 -100q14 -37 14 -80q0 -49 -16 -88q-18 -45 -56 -78q-31 -25 -57 -35q-39 -16 -86 -16h-2q-72 0 -123 39q-53 37 -76 100q-12 37 -12 78zM565 190l10 5zM594 276l4 -4zM610 145l2 5zM-2 215q0 66 33 119 q37 59 98 84q43 16 84 16q70 0 123 -39q57 -41 76 -100q14 -37 14 -80q0 -49 -16 -88q-18 -45 -56 -78q-31 -25 -57 -35q-39 -16 -86 -16h-2q-72 0 -123 39q-53 37 -76 100q-12 37 -12 78zM137 190l10 5zM166 276l4 -4zM182 145l2 5z" />
<glyph unicode="&#x202f;" horiz-adv-x="425" />
<glyph unicode="&#x205f;" horiz-adv-x="532" />
<glyph unicode="&#x2122;" horiz-adv-x="3008" d="M1329 0l98 1540h228l497 -534l-444 534h47l453 -485l-406 485h51l410 -438l-367 438h1022l86 -1540h-704l-23 264l-119 -135l-126 127l-13 -256h-690zM0 745v795h1327v-795h-252l-434 -20q379 -18 434 -20v-33l-434 -19q379 -20 434 -22v-31l-434 -20q381 -18 434 -23 v-555h-827v743h-248z" />
<glyph unicode="&#xe000;" horiz-adv-x="1540" d="M0 1540h1540v-1540h-1540v1540z" />
<glyph unicode="&#xfb01;" horiz-adv-x="2019" d="M1190 0v1540h829v-1540h-608l-16 1016q-25 -969 -27 -1016h-31l-16 1016q-25 -971 -25 -1016h-30l-17 1016q-27 -975 -26 -1016h-33zM0 -4v1544h1186v-596l-565 -20q477 -18 565 -23v-31l-565 -20q477 -18 565 -21v-32l-565 -21q477 -16 565 -20v-8h-25v-381h-330v-371 h-831z" />
<glyph unicode="&#xfb02;" horiz-adv-x="2387" d="M1190 -2v1542h829v-559l-419 -29q330 -8 419 -10v-33l-417 -28q326 -10 417 -13v-32l-415 -29q322 -8 415 -12v-2h367v-795h-1196zM0 -4v1544h1186v-596l-565 -20q477 -18 565 -23v-31l-565 -20q477 -18 565 -21v-32l-565 -21q477 -16 565 -20v-8h-25v-381h-330v-371 h-831z" />
<glyph unicode="&#xfb03;" horiz-adv-x="3209" d="M2380 0v1540h829v-1540h-608l-16 1016q-25 -969 -27 -1016h-31l-16 1016q-25 -971 -25 -1016h-30l-17 1016q-27 -975 -26 -1016h-33zM1190 -4v1544h1186v-596l-565 -20q477 -18 565 -23v-31l-565 -20q477 -18 565 -21v-32l-565 -21q477 -16 565 -20v-8h-25v-381h-330 v-371h-831zM0 -4v1544h1186v-596l-565 -20q477 -18 565 -23v-31l-565 -20q477 -18 565 -21v-32l-565 -21q477 -16 565 -20v-8h-25v-381h-330v-371h-831z" />
<glyph unicode="&#xfb04;" horiz-adv-x="3577" d="M2380 -2v1542h829v-559l-419 -29q330 -8 419 -10v-33l-417 -28q326 -10 417 -13v-32l-415 -29q322 -8 415 -12v-2h367v-795h-1196zM1190 -4v1544h1186v-596l-565 -20q477 -18 565 -23v-31l-565 -20q477 -18 565 -21v-32l-565 -21q477 -16 565 -20v-8h-25v-381h-330v-371 h-831zM0 -4v1544h1186v-596l-565 -20q477 -18 565 -23v-31l-565 -20q477 -18 565 -21v-32l-565 -21q477 -16 565 -20v-8h-25v-381h-330v-371h-831z" />
</font>
</defs>
</svg>
